<svg xmlns="http://www.w3.org/2000/svg" xmlns:xlink="http://www.w3.org/1999/xlink" viewBox="0 0 817.95 597.06"><defs><style>.cls-1,.cls-5{opacity:0.06;}.cls-2,.cls-5{fill:#4da428;}.cls-3{fill:url(#Degradado_sin_nombre_2);}.cls-4{fill:#229cf7;}</style><linearGradient id="Degradado_sin_nombre_2" x1="261.23" y1="366.01" x2="587.08" y2="366.01" gradientUnits="userSpaceOnUse"><stop offset="0" stop-color="#fff"/><stop offset="0.1" stop-color="#eee"/><stop offset="0.3" stop-color="silver"/><stop offset="0.58" stop-color="#777"/><stop offset="0.93" stop-color="#141414"/><stop offset="1"/></linearGradient></defs><g id="OBJECTS"><g class="cls-1"><path class="cls-2" d="M635.76,201.3c-1,16.5-3.66,32.84-4.89,49.32-1,14-.47,29.21,9.19,40.29,4,4.55,9.36,8.14,15.36,9.2,6.34,1.13,12.63-.6,18.08-3.85,5.85-3.49,10.72-8.39,15.26-13.41,5.2-5.76,10.19-11.72,15.08-17.74,9.79-12.06,19.21-24.41,29.34-36.19,10-11.59,20.94-22.11,31.88-32.77,10.61-10.34,20.88-21.08,29.08-33.49A143.86,143.86,0,0,0,812,124.24a145.88,145.88,0,0,0,6-41.93,92.73,92.73,0,0,0-2.21-21.79,47.19,47.19,0,0,0-9.65-18.86C788.5,20.44,759.63,13.88,733.78,9.31c-15.91-2.81-31.92-5-48-6.74C670.38.92,654.78-1,639.28.62a120.92,120.92,0,0,0-41.8,12.23c-12,6-24.51,14.41-30.24,27a32.05,32.05,0,0,0-2.57,19.59C566,65.72,569.76,71,574.64,75s10.51,7,15.94,10.16a108,108,0,0,1,16.18,11.49c10,8.66,18.43,19.57,21.63,32.56a252.78,252.78,0,0,1,7,48.48c.37,7.85.43,15.76,0,23.61-.07,1.55,2.34,1.54,2.42,0a250.89,250.89,0,0,0-2.15-47.36q-1.65-11.67-4.33-23.16a58.56,58.56,0,0,0-7.21-17.86c-6.75-10.86-16.58-19.64-27.17-26.65-9.88-6.54-23.49-11.4-28.48-23.07-5.58-13,1.86-27,11.56-35.72A84.42,84.42,0,0,1,597.22,16a113.28,113.28,0,0,1,20-8.23A119.45,119.45,0,0,1,659.5,2.9c16,1,32,2.81,47.84,5,14.4,2,28.84,4.19,43,7.42,12.8,2.92,25.53,6.93,36.81,13.77,11.75,7.13,22.11,17.55,25.75,31.14,1.88,7,2.3,14.39,2.35,21.62a138.14,138.14,0,0,1-1.43,20.62,145,145,0,0,1-34.69,74.71c-9.75,11.06-20.74,20.93-31.19,31.32a394.16,394.16,0,0,0-29.67,33.72c-9.41,11.78-18.59,23.75-28.52,35.1-8.17,9.35-18.85,21.79-32.7,20.22-13-1.49-21-14.38-23.12-26.19-1.36-7.43-1-15.08-.46-22.58.61-8,1.47-16.08,2.28-24.11.78-7.76,1.48-15.53,1.83-23.32C637.65,200.12,635.83,200.13,635.76,201.3Z"/><path class="cls-2" d="M596.15,38.47c-2.39,1.57-4.81,3.34-6.27,5.86a11.5,11.5,0,0,0-1.33,7.34c.77,5.69,4.74,10,9.4,13s10.12,5.16,15.16,7.69c4.81,2.41,9.59,4.92,14.19,7.74,8.83,5.43,17.2,12.17,22.61,21.15,6.67,11.07,7,24,6.75,36.53-.46,28.34-3.89,56.51-5.38,84.79-.37,7.07-.62,14.15-.68,21.22a54.55,54.55,0,0,0,1.48,14.8c1.18,4.36,3.37,8.56,7.13,11.22,4.62,3.25,10.61,3,15.67,1,10.91-4.4,18.09-14.67,24.35-24.11,7.27-11,14.44-22,21.89-32.82s15.32-21.69,23.7-32,17.46-19.59,26.36-29.27c8.61-9.38,16.38-19.38,22.08-30.81a111.14,111.14,0,0,0,10.83-35.35c.82-6.41,1-13-.66-19.36a35.92,35.92,0,0,0-7.89-14.47c-8-9.13-19.45-14-30.95-17.15a355.58,355.58,0,0,0-40.41-8c-13.56-2-27.2-3.37-40.89-4.19-23.86-1.44-48.78-2.93-71.39,6.31a90.36,90.36,0,0,0-16,8.55c-1.32.89-.08,3,1.26,2.15,20-13.37,44.69-15.83,68.16-15.4,12.57.22,25.2,1.05,37.71,2.27,13.56,1.33,27.09,3.25,40.45,5.92,12.54,2.51,25.62,5.06,37,11.11,9.68,5.13,18.2,13.48,20.61,24.49,1.36,6.21.89,12.72-.08,19A117.33,117.33,0,0,1,797,105.06a110.66,110.66,0,0,1-16.6,32.27c-7.54,10.13-16.71,18.9-25.22,28.18a369.57,369.57,0,0,0-24.47,29.94c-7.66,10.34-14.91,21-22,31.72q-5.28,8-10.52,16.05a122.09,122.09,0,0,1-10.09,13.92c-3.73,4.24-8.13,8.2-13.35,10.5-4.73,2.09-10.56,2.55-14.67-1.1-3.26-2.89-4.7-7.22-5.49-11.38-1-5.21-.8-10.54-.69-15.81.56-27.51,3.8-54.86,5.17-82.33.35-6.9.58-13.81.63-20.72A113.85,113.85,0,0,0,658.53,117,50.22,50.22,0,0,0,643.9,89.22c-7.36-7.25-16.44-12.9-25.67-17.46-4.81-2.38-9.76-4.49-14.6-6.81-5-2.4-10.25-5.55-12.34-11a10.66,10.66,0,0,1-.22-7.72c1.1-2.76,3.56-4.67,5.92-6.32C597.86,39.3,597.05,37.87,596.15,38.47Z"/><path class="cls-2" d="M617.25,48.83c-.7,4.57,2.85,8.06,6.18,10.6a69.8,69.8,0,0,0,12,7c8.35,4,17.35,7.42,24.17,13.9s11,15.68,13.32,24.85a127.92,127.92,0,0,1,3.49,32.51,287.14,287.14,0,0,1-2.65,34c-.73,5.83-1.55,11.65-2.33,17.48-.75,5.5-1.6,11-2.05,16.56-.41,5-.17,10.26,2.35,14.72a13.57,13.57,0,0,0,10,7.16c4.58.5,8.82-1.95,12.1-4.92a59.39,59.39,0,0,0,9.23-11.59c11.11-16.92,17.68-36.47,31.07-51.92,7.05-8.15,14.94-15.53,22.12-23.57a233.94,233.94,0,0,0,19.86-25.28c5.67-8.43,12-17.76,12.78-28.18.73-9.26-4.07-17.84-11-23.69-7.76-6.57-17.73-9.7-27.44-12.12-11-2.75-22.14-5.09-33.31-7.13q-8.62-1.59-17.31-2.89c-5.55-.84-11.12-1.73-16.72-2.17-9.65-.76-19.35-.17-29,.28a132.63,132.63,0,0,0-17.56,1.81c-5.65,1-12,2.56-16.41,6.52a10,10,0,0,0-3.32,5.91c-.19,1.28,1.77,1.84,2,.54.77-5.17,6.52-7.59,10.92-9a80.5,80.5,0,0,1,18.11-3c7-.51,14-.72,21-.89a132.84,132.84,0,0,1,15.71.43c5.55.51,11.07,1.4,16.58,2.25q16.62,2.58,33.06,6.14c5.3,1.14,10.58,2.35,15.83,3.67a93.75,93.75,0,0,1,14.4,4.56c8.36,3.6,16.17,9.45,19.86,18,4.05,9.38.5,19.06-4.33,27.38-10.44,18-24.19,33.84-38.69,48.66-7.16,7.32-13.91,14.84-19.32,23.59-5.12,8.25-9.28,17-13.85,25.6-2.3,4.3-4.69,8.55-7.36,12.63a58.64,58.64,0,0,1-8.71,11.06c-3.09,2.88-7.31,5.34-11.65,4-4-1.25-6.62-5.25-7.6-9.15-1.31-5.2-.41-10.72.24-15.95.67-5.5,1.44-11,2.19-16.49,1.49-11,2.95-21.94,3.66-33a166,166,0,0,0-.8-32.9c-1.26-9.39-3.55-18.84-8.1-27.22a43.43,43.43,0,0,0-8.23-10.86,49.45,49.45,0,0,0-10.86-7.55C643,67,634.28,64.17,626.74,59.18c-3.4-2.24-8.48-5.55-8.25-10.18C618.53,48.3,617.36,48.12,617.25,48.83Z"/><path class="cls-2" d="M664.09,48.71c-2.74.65-5.31,2-5.49,5.14s1.84,5.51,4.19,7.24c2.67,2,5.56,3.63,8.23,5.6a75.75,75.75,0,0,1,7.56,6.41c9.69,9.38,16.31,21.37,18.08,34.83,2,14.82-1.36,29.8-4.34,44.26-1.53,7.45-3.06,14.91-4.05,22.46-.63,4.9-1.28,12.25,4.29,14.66,2.82,1.21,6.06.28,8.37-1.58,2.66-2.13,4-5.4,5.16-8.49,2.5-6.56,4.91-13.16,7.62-19.64,5.32-12.74,11.65-25.34,20.69-35.88,8.9-10.37,21.53-18.19,26.59-31.41,2.3-6,2.86-12.92.17-18.89-2.28-5-6.68-9.07-11.33-11.92-9.69-6-21.3-7.7-32.29-9.73-14.33-2.64-28.95-5.81-43.62-4.89A56.38,56.38,0,0,0,664,48.34c-1.4.35-.8,2.44.59,2.15,13.85-2.89,27.95-.64,41.66,1.89,6,1.1,12,2.2,17.91,3.39A104.57,104.57,0,0,1,739.93,60a39.41,39.41,0,0,1,13.69,8c4.27,4.06,6.74,9.15,6.5,15.11-.57,13.85-12.13,23-21.23,32-9.42,9.24-16.57,20.21-22.28,32.06-2.85,5.92-5.38,12-7.82,18.09-1.25,3.14-2.47,6.28-3.69,9.43s-2.18,6.47-4.11,9.19c-1.58,2.22-4.62,4.31-7.43,3.07-2.39-1.06-3-4-3.09-6.34a49.24,49.24,0,0,1,.95-9.61c.54-3.47,1.19-6.93,1.89-10.37,2.83-14,6.48-28.11,6.55-42.53A65.69,65.69,0,0,0,697,97.62a57.74,57.74,0,0,0-8.28-16.13A71.66,71.66,0,0,0,675.94,68a75.89,75.89,0,0,0-7.15-5.21c-2.66-1.7-6.28-3.13-7.95-5.95a4.79,4.79,0,0,1-.46-4.27c.73-1.59,2.54-2.08,4.1-2.45C665.4,49.91,665,48.49,664.09,48.71Z"/><path class="cls-2" d="M731.85,93.88c1.68-4.65,2.74-9.93,1.24-14.77-1.36-4.43-4.76-7.62-8.69-9.86-3.63-2.07-8.19-4.32-12.48-4.21-4.6.13-7.45,3.8-6.56,8.31.51,2.57,2.15,4.7,3.55,6.84a42.38,42.38,0,0,1,3.81,7.28A27.2,27.2,0,0,1,714.81,95c.25,2.57.12,5.15.17,7.73s.22,7.13,2.93,8.66c1.83,1,3.77-.44,5-1.72a34,34,0,0,0,5.35-8.1,58.52,58.52,0,0,0,3.35-7.77c.32-.92-1.1-1.28-1.44-.4A61.44,61.44,0,0,1,723.61,106c-.9,1.31-2.37,3.66-4.09,4-2,.36-2.46-3.64-2.58-4.8-.44-4.32.51-8.71-.37-13a39.47,39.47,0,0,0-5.44-13c-1.19-1.87-2.68-3.71-3.25-5.89-.49-1.88-.19-4.14,1.68-5.13,3.16-1.67,7.59.33,10.54,1.6,4.18,1.81,8.55,4.33,10.5,8.67,2.13,4.73,1,10.26-.67,14.95C729.5,94.56,731.42,95.07,731.85,93.88Z"/><path class="cls-2" d="M675.64,405.72c3.81-22.63-12.58-41.19-27-56.26-7.7-8-15.42-16.13-20.7-26-5.15-9.61-7.91-20.36-9.13-31.14-2.56-22.62.93-45.46,2-68.06,1.07-23.11.86-46.66-4.44-69.29-4.46-19.07-13.49-37.53-28.65-50.36-16-13.58-39.49-19.63-60-14.34-19.58,5.07-36.54,19.3-49.24,34.55s-22.43,33-30.74,51.08c-4.18,9.09-9.6,18.82-5.09,28.8,4.06,9,13.07,14.51,22.17,17.31,5.2,1.6,10.57,2.55,15.8,4a48.65,48.65,0,0,1,14.34,6.69c9.81,6.63,18.56,14.84,26.69,23.42C529,264,535.81,273,537.08,284c1.15,10-1.86,20-7.05,28.5-11.41,18.64-32.69,27.6-52.86,33.3-22.52,6.37-46.07,10-66.53,22a112,112,0,0,0-24.28,19.24,110.91,110.91,0,0,0-10,12.16c-3.22,4.53-6.31,9.42-7.59,14.89-2.44,10.44,2.43,20.52,8.84,28.49s14.84,14.86,23.36,20.7a148.66,148.66,0,0,0,59.1,23.51c22.72,3.83,45.4,1.88,67.67-3.6,19.89-4.88,39.24-11.74,58.92-17.36,14.94-4.27,29.85-8.74,44.09-15,13.83-6.07,27.68-14.06,36.91-26.32A44.46,44.46,0,0,0,676,405.81c.38-2.11-2.85-3-3.23-.89-2.62,14.46-13.32,25.31-25.29,33-13.14,8.4-28,13.87-42.78,18.54-15.41,4.86-31,9.11-46.44,13.95-21.5,6.75-43.29,13.42-65.94,14.62a148.57,148.57,0,0,1-63.39-10.84,139.17,139.17,0,0,1-27.69-15.09c-8.38-5.91-16.76-12.83-22.78-21.22A35.41,35.41,0,0,1,372,424.07c-1.07-5.68.33-11.18,3.08-16.17,5-9,12.22-17.09,19.85-23.95a107.86,107.86,0,0,1,26-17.29c10.51-5,21.78-8.08,33-10.89,21.18-5.31,43.5-9.82,61.62-22.77,15.57-11.12,27.57-29.74,25.08-49.56-1.28-10.19-6.76-18.91-13.46-26.47a173.5,173.5,0,0,0-25-23.11,66,66,0,0,0-13.78-8.55,87,87,0,0,0-14.7-4.22c-9.94-2.25-20.27-5.23-26.5-14a18,18,0,0,1-3.45-13.56c.92-5.26,3.59-10.28,5.77-15.12a284.68,284.68,0,0,1,13.54-26.57C473,135.11,485,119.2,500.6,107.46c8.29-6.24,17.73-11.75,27.87-14.27,11.32-2.81,23.06-1.76,34.14,1.65,18.74,5.77,32.66,19.87,41.49,37,9.93,19.31,12.71,41.78,13.38,63.22.72,22.66-1.68,45.14-2.89,67.74-1.14,21.1,0,43.41,10.24,62.41,10.28,19.16,29.3,31.44,40.65,49.81,5.51,8.92,9.25,19.34,7.59,29.94C672.8,406.68,675.36,407.42,675.64,405.72Z"/><path class="cls-2" d="M587.93,141.83c-6.54-12.88-17.28-23.36-31-28.14-13.18-4.58-27.86-3.51-40.66,1.78a71.7,71.7,0,0,0-35.94,33.11c-2.06,3.91-3.69,8-5.61,12A126,126,0,0,0,469,173.3c-2.8,8-2.71,16.54,1.94,23.81,4.11,6.41,10.66,10.76,17.19,14.39,7,3.87,14.25,7.12,20.91,11.54A101.11,101.11,0,0,1,542.72,261c8.44,16.47,13.54,36.21,6.67,54.13-5.9,15.36-19.24,26.58-33.23,34.45C500,358.65,481.79,363,464,368a266.55,266.55,0,0,0-27.64,8.94c-8.49,3.41-16.77,7.42-23.91,13.2-6.31,5.11-11.86,11.67-14.43,19.47a28.28,28.28,0,0,0,3.21,23.87c4.59,7.36,11.6,12.89,18.72,17.65A129.49,129.49,0,0,0,444.67,464a134.49,134.49,0,0,0,53.82,9.21c20.16-.75,39.27-6.6,58-13.58a472,472,0,0,0,57.91-25.69c9-4.8,18-9.91,26.23-16,3.33-2.5,6.56-5.38,8.48-9.14a18.91,18.91,0,0,0,1.55-12.14c-1.75-9.43-8.86-16.21-15.56-22.46a85.84,85.84,0,0,1-17.09-21.54c-9.26-16.9-13-36.3-14.28-55.35-1.47-21.76-.14-43.61-.75-65.39q-.46-16.49-1.82-32.92a269.89,269.89,0,0,0-3.76-30.25,106.3,106.3,0,0,0-9.06-27.13c-1-1.88-3.79-.22-2.84,1.66,9,17.81,10.72,38.52,12.31,58.1,1.75,21.43,2,42.85,1.91,64.34-.12,20.1-.08,40.49,4.71,60.14,4.22,17.27,12.1,33.93,24.92,46.49,6.54,6.4,14.51,12.36,17.69,21.29,1.53,4.28,1.91,9.06-.13,13.25-1.86,3.84-5.26,6.67-8.7,9.07-16.59,11.55-35.08,20.49-53.47,28.76q-14.34,6.45-29.08,11.93a272.52,272.52,0,0,1-29.39,9.46,130,130,0,0,1-54.91,1.72,132.54,132.54,0,0,1-50-20.24c-7-4.69-13.88-10.27-18.05-17.72a24.58,24.58,0,0,1-.56-23.06c7.87-16.14,26.2-24.48,42.25-30.06,18-6.24,36.77-9.71,54.64-16.23,15-5.48,29.48-13.62,40.36-25.47a60.78,60.78,0,0,0,12.09-19.14,55,55,0,0,0,2.78-27.17c-2.29-17.12-9.6-33.17-20.22-46.72A100.58,100.58,0,0,0,517,224.41a127.64,127.64,0,0,0-20.65-12.52c-6.59-3.35-13.46-6.77-18.78-12-5.82-5.74-8.34-13.37-6.44-21.41a61.63,61.63,0,0,1,5-12.55c2-4,3.72-8,5.65-12a75.86,75.86,0,0,1,14.58-21.08c10.39-10.33,24.64-17.49,39.31-18.73a50.17,50.17,0,0,1,37.22,11.78A57.91,57.91,0,0,1,586,143C586.67,144.23,588.58,143.1,587.93,141.83Z"/><path class="cls-2" d="M500.69,155.6a59.57,59.57,0,0,0-4.94,8.9,39.76,39.76,0,0,0-2.51,8.83c-.92,5.86-.39,12,2.74,17.21s8.29,8.72,13.34,11.75,10.7,5.61,15.51,9.25c10.5,8,20.4,17.81,26.25,29.74,6.16,12.58,7.65,26.91,14.06,39.4,1.38,2.69,3.07,5.57,5.79,7.1a7.07,7.07,0,0,0,8.56-1.24c2.14-2.09,3.21-5.06,4.06-7.85a54.76,54.76,0,0,0,1.92-9.31c1.68-13.33-.48-26.78-2.37-40-2.12-14.82-3.15-29.76-5-44.62-1-7.71-2.06-15.4-3.66-23-1.38-6.58-3.43-13.16-7.63-18.52-7.08-9-19.19-13.31-30.43-12.55-12.24.81-23.26,7.65-31,16.9a62.9,62.9,0,0,0-5.4,7.56c-1,1.69,1.62,3.23,2.65,1.55,6.1-9.92,15.51-18.34,26.86-21.59,10.22-2.92,22.1-1.05,30.43,5.75a30.16,30.16,0,0,1,9.49,14.61c2.11,6.64,3.11,13.69,4.17,20.56,2.28,14.73,3.48,29.6,5.1,44.42,1.38,12.58,3.45,25.19,3.53,37.88a64.66,64.66,0,0,1-2.12,18.17c-.7,2.44-1.51,5.38-3.42,7.18s-4.18.63-5.68-1.23a33.55,33.55,0,0,1-4.25-8.11c-1.27-3.07-2.33-6.23-3.32-9.4-2-6.37-3.64-12.85-6-19.1a71,71,0,0,0-9.24-17.26,96.49,96.49,0,0,0-13.13-14.27,81.17,81.17,0,0,0-14.51-10.69c-5-2.82-10.27-5.27-15-8.6-4.54-3.23-8-7.38-9.11-12.93s-.22-11.58,1.62-17a47.31,47.31,0,0,1,3.82-8.83A.71.71,0,0,0,500.69,155.6Z"/><path class="cls-2" d="M604.92,374.88c-10.28-14.87-13.12-32.76-17.09-50-1.64-7.14-3.14-18.45-12.1-19.81a7.89,7.89,0,0,0-5.4.95,9.8,9.8,0,0,0-3.65,5,74,74,0,0,0-3.5,13.5c-.71,3.94-1.2,7.92-2.57,11.7a34.18,34.18,0,0,1-4.59,8.49c-3.89,5.32-9.24,9.47-14.88,12.79-12.55,7.38-27,11.26-41.11,14.53-18.47,4.3-37.62,7.41-54.91,15.51-7.42,3.48-14.57,8.51-17.77,16.34-3.06,7.48-1.56,16.11,2.28,23,8.78,15.81,28.37,20.38,45,22,19.87,1.94,39.94-.74,59.21-5.62s38-11.56,56.42-18.94c8.19-3.29,16.22-7.58,21.29-15.07a24.25,24.25,0,0,0,4.21-11.66,22.89,22.89,0,0,0-3-12.38c-2-3.82-4.72-7.19-7.22-10.7a2,2,0,0,0-2.69-.71,2,2,0,0,0-.71,2.69c4.56,6.42,10.7,13.46,9.56,21.92-1.09,8.15-7.42,14.37-14.24,18.28-7.85,4.5-16.78,7.16-25.28,10.14-9.11,3.2-18.28,6.26-27.56,8.94-18.33,5.27-37.29,9.16-56.43,9.25a119.22,119.22,0,0,1-27.36-2.77c-7.8-1.81-15.6-4.82-21.61-10.27-5.42-4.92-9.09-12-9.15-19.41-.07-7.84,4.55-14,10.9-18.13,7.2-4.72,15.63-7.62,23.82-10.07,8.83-2.65,17.84-4.61,26.84-6.58,14.77-3.22,29.66-6.8,43.46-13.09,11.6-5.28,23-13.22,28.14-25.3a45,45,0,0,0,2.82-10.32A117,117,0,0,1,569,315.71c1-3.28,2.09-8,6.51-7.12,3.94.81,5.73,4.67,6.8,8.16,2.48,8.05,4,16.41,6,24.58a125.22,125.22,0,0,0,8.12,24.08,67,67,0,0,0,6.38,10.71C603.72,377.38,605.83,376.2,604.92,374.88Z"/><path class="cls-2" d="M581.79,366.77a75.92,75.92,0,0,0,3.51,9.37c1.39,3.06,3.06,6,4.24,9.17a19,19,0,0,1,1.36,8.33,13.72,13.72,0,0,1-3.49,7.67c-3.5,4-8.32,6.39-13.23,8.12-5.78,2-11.81,3.44-17.76,4.89-13.41,3.27-26.93,6-40.58,8.11-10.94,1.68-22.05,3.48-33.13,4a68.84,68.84,0,0,1-16.16-.86c-4.69-.91-9.77-2.54-13.16-6.08-2.86-3-4.56-7.56-2.88-11.55a13.25,13.25,0,0,1,4.77-5.28,34,34,0,0,1,7.1-4c5.34-2.18,11.07-3.07,16.73-3.92q10.13-1.51,20.14-3.62A315.55,315.55,0,0,0,537,381c9.71-3.33,19.77-7.91,26.66-15.79a33.1,33.1,0,0,0,4.34-6.23c1.07-2,2-4.3,3.62-6,1.29-1.33,3.11-1.87,4.56-.45s2,3.83,2.43,5.78A72.89,72.89,0,0,0,581,367c.76,2.15,4.2,1.24,3.45-1-1-3.07-1.68-6.21-2.47-9.35a14.69,14.69,0,0,0-3.07-6.51,6.41,6.41,0,0,0-6.53-1.81c-2.5.78-4.19,3-5.46,5.18s-2.3,4.6-3.77,6.74a31.81,31.81,0,0,1-5.16,5.77,51.23,51.23,0,0,1-14,8.37A142.06,142.06,0,0,1,527.66,380q-10.41,3-21,5.45t-21,4.13c-6.38,1.05-12.9,1.61-19.15,3.33-9.6,2.64-23.37,9.83-19.86,21.94,3.15,10.84,15.67,14.09,25.58,15,11.36,1,22.74-.83,34-2.34,14.18-1.9,28.27-4.29,42.23-7.43,6.86-1.54,13.7-3.24,20.47-5.14,5.52-1.55,11.15-3.38,15.92-6.64,4.94-3.36,8.87-8.33,9.35-14.45.51-6.62-3.16-12.33-6-18-1.58-3.15-3.16-6.32-4.49-9.59C583.22,365.11,581.41,365.53,581.79,366.77Z"/><path class="cls-2" d="M575,380.77a5.3,5.3,0,0,1,.5,5.44,13.56,13.56,0,0,1-4.6,4.56,50.71,50.71,0,0,1-12.87,5.9c-7.83,2.57-15.88,4.43-23.83,6.59s-15.78,4.68-23.9,6.28c-4,.78-8,1.4-12.07,1.83-3.84.41-7.91,1-11.78.75-2.68-.19-6.47-2-6.07-5.28.37-3,5-3.31,7.24-3.71,14.56-2.6,29.37-3.82,43.77-7.3a98.82,98.82,0,0,0,20.74-7.29c3.3-1.63,6.36-3.61,9.49-5.54,2.66-1.64,5.68-3.34,8.93-2.84a6.29,6.29,0,0,1,3.65,1.69c1.59,1.61,4.67-.58,3.24-2.5a10.14,10.14,0,0,0-9.81-3.84c-4.11.52-7.54,2.84-10.93,5.06a81,81,0,0,1-21.43,9.66c-15.4,4.57-31.49,5.9-47.2,9-3.35.66-7.49,1.11-9.79,4s-1.48,6.69.81,9.26c2.63,3,7.1,3.48,10.82,3.38a122.54,122.54,0,0,0,13.26-1.2A155.78,155.78,0,0,0,529,408.46c8.6-2.73,17.4-4.83,26-7.59,5.51-1.77,11-3.74,15.81-6.94,3.56-2.35,8.43-6.3,7.2-11.19a6.5,6.5,0,0,0-1.8-2.89A.77.77,0,0,0,575,380.77Z"/><path class="cls-2" d="M509.47,175.4c1.16,5.87,5.81,10.14,10.54,13.39,5.3,3.65,11,6.57,16,10.6a79.16,79.16,0,0,1,24.42,32.77c3.09,7.77,5.58,15.86,10.46,22.77a1.63,1.63,0,0,0,2.2.57c4.48-2.82,4.29-8.34,3-12.9a73.4,73.4,0,0,0-3-7.94c-1.31-3.23-2.51-6.49-3.5-9.84a131.49,131.49,0,0,1-4.25-20.53c-.87-6.8-1.06-13.66-1.7-20.48-1.06-11.48-3.76-23.18-12.09-31.68a22.75,22.75,0,0,0-12.81-7A21.49,21.49,0,0,0,525,148.24,38.17,38.17,0,0,0,512.52,160c-3,4.55-4.94,10.1-3.64,15.55.48,2,3.6,1.18,3.14-.86-1-4.24.63-8.55,2.82-12.14a34.34,34.34,0,0,1,9.59-10.1c3.63-2.54,7.77-4.5,12.29-4.4a18.5,18.5,0,0,1,11.85,5.19c8,7.26,11.08,17.82,12.27,28.24.72,6.35.9,12.74,1.46,19.1a119.84,119.84,0,0,0,3.24,19.1,175.17,175.17,0,0,0,6.53,19.85c1.43,3.68,3.84,10.56-.56,13.18l2.21.58c-4.12-6.14-6.49-13.18-9.11-20a88.36,88.36,0,0,0-9.47-18.64,80.07,80.07,0,0,0-13.54-15.17c-5-4.35-10.72-7.58-16.47-10.88s-11.6-7.1-13.71-13.72A1,1,0,0,0,509.47,175.4Z"/><path class="cls-2" d="M523.62,174.36c1.15,3.25,3.88,5.26,6.49,7.34,3.25,2.58,6.58,5,9.95,7.47,2.72,2,5.85,4.7,9.48,4s4.92-4.9,4.16-8.2a33,33,0,0,0-1.91-4.89c-.72-1.75-1.41-3.51-2.14-5.25a62.58,62.58,0,0,0-4.79-9.32c-1.91-3.05-4.14-5.93-7.6-7.27a9.31,9.31,0,0,0-8,.85c-4.92,2.85-8.72,9.92-6.38,15.52a2.11,2.11,0,1,0,3.88-1.64c-1.37-3.25,1.1-7.51,3.63-9.48A6,6,0,0,1,535,162c2.62.4,4.47,2.76,5.85,4.81,3.23,4.78,5,10.28,7.26,15.55.58,1.38,2.78,5.2.82,6.39-.8.49-2-.21-2.71-.61a44.71,44.71,0,0,1-4-2.73c-3-2.12-5.93-4.22-9-6.21-2.57-1.69-5.5-3.21-7.16-5.91C525.34,172,523.08,172.84,523.62,174.36Z"/><path class="cls-2" d="M575,385.24a1.31,1.31,0,0,0,0-2.61,1.31,1.31,0,0,0,0,2.61Z"/><path class="cls-2" d="M792.51,199.93a359.25,359.25,0,0,0-61.39,61.9c-7.89,10.22-15,21.07-23.51,30.81-7.94,9.07-17.35,17.35-29.1,20.89-5.11,1.54-10.87,2.12-15.21,5.51-4.63,3.61-5.13,9.41-2.64,14.48,3,6.13,8.48,11,12.41,16.57a123.42,123.42,0,0,1,10.38,17.59c6.17,12.77,10.68,26.8,11.5,41,.42,7.22-.45,14.52-4,20.91-3.15,5.66-7.88,10.27-13,14.11-11.39,8.49-24.75,14.71-37.69,20.42-14.07,6.22-28.56,11.33-43.13,16.25-7,2.35-13.93,4.61-20.75,7.36-6.29,2.54-12.48,5.29-18.71,7.95-13.27,5.66-26.66,10.26-41,12.37a188.43,188.43,0,0,1-81.32-5.92,184,184,0,0,1-37.61-16.11c-12.24-6.95-22.88-16.29-35.09-23.24-10.74-6.11-23.89-9.9-36-5.83-11.78,4-18.34,14.87-19.82,26.77-1.83,14.7,4,29,7.79,42.91,4.13,15.14,7.19,30.55,9.89,46,1.34,7.66,2.61,15.33,3.89,23,.41,2.46,4.12,1.41,3.73-1-2.47-15.36-5-30.7-8.2-45.92-1.63-7.75-3.45-15.46-5.53-23.11-2-7.37-4.46-14.64-6.17-22.1-2.84-12.42-3.2-27.63,6.58-37.3,9.47-9.35,24.69-8,35.93-3,12.65,5.7,23.05,15.31,34.74,22.62a176.25,176.25,0,0,0,36.48,17.2,195.79,195.79,0,0,0,79.59,9.68,153.71,153.71,0,0,0,40-8.54c13-4.75,25.43-10.83,38.42-15.53,14.19-5.14,28.6-9.52,42.69-15A316.46,316.46,0,0,0,667.28,455c10.65-6,21.77-13.24,27.52-24.42,6.4-12.42,4.25-27.27,1-40.29a122.27,122.27,0,0,0-16.11-37.5,179.07,179.07,0,0,0-12.25-15.89c-2.14-2.6-4.63-5.87-4.66-9.4,0-3.1,2-5.3,4.57-6.67,5-2.63,10.93-3,16.15-5.12a58.86,58.86,0,0,0,14.65-8.67c9.57-7.59,17.05-17.44,24.2-27.23,8.2-11.23,16.45-22.34,25.5-32.9A405.17,405.17,0,0,1,778,215.34q7.71-7.26,15.82-14.08c.93-.79-.4-2.06-1.33-1.33Z"/><path class="cls-2" d="M798.73,211c-18.68,22-36.92,44.31-55,66.74-8.47,10.48-16.62,21.27-25.48,31.42a137.8,137.8,0,0,1-13.31,13.49c-4.1,3.56-10.16,6.53-12.15,11.88s.15,11,2.18,16q3.79,9.41,6.79,19.09c4.07,13.14,7.63,27,8.73,40.72,1,12.46-1.5,24.37-9.44,34.23-6.84,8.51-16.08,14.76-25.57,19.95-23.57,12.91-49.36,21.68-74.47,31-25.58,9.54-51.41,18.81-78.17,24.49-24.63,5.22-50.21,7.22-75.2,3.31a146.72,146.72,0,0,1-35.12-9.82c-11.34-4.87-21.37-11.71-31.57-18.55-9.51-6.39-19.79-12.53-31.21-14.68-5.12-1-10.68-1-15.44,1.35a15.42,15.42,0,0,0-8,10.24c-2.35,9.78,2.29,20,5.72,29A180.25,180.25,0,0,1,342.1,559.6,184,184,0,0,1,343.86,580c.06,2.1,3.34,2.1,3.25,0a187.63,187.63,0,0,0-5.79-39.15,190.26,190.26,0,0,0-6-19.13c-1.92-5.12-4.1-10.13-5.48-15.43-1.24-4.74-2.07-10-.54-14.81,1.81-5.6,7-8.62,12.67-9,11.8-.72,23.28,6.11,32.74,12.39,9.95,6.61,19.47,13.83,30.21,19.16a140.94,140.94,0,0,0,33.89,11.63c24,5,48.88,4.4,73,.39,26.69-4.45,52.47-13,77.82-22.27,25.6-9.38,51.39-18.76,76.06-30.42,18.82-8.89,39.94-20.86,46.52-42.07,3.9-12.57,1.76-26.18-.93-38.77a246.31,246.31,0,0,0-11.66-38.79c-2-5.12-6.05-12.13-4-17.78,1.08-3,4-4.64,6.39-6.45s5-3.94,7.31-6.08c9.46-8.61,17.46-18.62,25.5-28.52Q761.5,262,787.47,228.51q6.39-8.2,12.69-16.45c.63-.82-.76-1.89-1.43-1.1Z"/><path class="cls-2" d="M365.55,567q-5.22-19.35-10.56-38.67c-.82-2.95-1.78-5.88-2.53-8.85-.54-2.11-1.15-4.82,0-6.84,1.64-2.91,5.55-1.72,8-.89a64.43,64.43,0,0,1,8.84,3.79c10,5.16,19.15,11.89,28.95,17.45a120.85,120.85,0,0,0,31.55,12.31c22.26,5.3,45.44,5,68,2.24,24-2.91,47.66-8.2,70.89-14.67a669.81,669.81,0,0,0,70.42-24q17.31-6.94,34.27-14.71c9.8-4.47,19.66-9,28.88-14.55C711,474.32,719.09,468,725.26,460a55.93,55.93,0,0,0,11.13-29.52c.92-11-1-22.2-4-32.79-3.19-11.13-8.08-21.48-12.25-32.23-3.58-9.23-7.15-21.42-.11-30,3.65-4.43,8.73-7.55,12.7-11.71a140.8,140.8,0,0,0,10.7-13.15c15.82-21.19,31.43-42.55,47.12-63.84q5.84-7.92,11.71-15.8c1.25-1.69-1.58-3.32-2.81-1.65Q775.6,261.74,751.54,294c-7.44,10-14.3,21-23.37,29.68-3.95,3.77-8.81,6.61-12,11.11a23.18,23.18,0,0,0-4,13.86c.14,10.95,5.67,21,9.75,30.85,4.45,10.77,8.28,21.94,10.09,33.5,1.73,11.07,1.36,22.63-2.82,33.14-3.91,9.81-11.1,17.86-19.45,24.18s-17.69,11.15-27.11,15.62q-17,8.06-34.34,15.29a695.37,695.37,0,0,1-70.87,25.32,537.8,537.8,0,0,1-72.31,16.38c-22.8,3.41-46.47,4.73-69.24.43a120,120,0,0,1-32.77-11c-10.26-5.29-19.6-12.15-29.85-17.47-4.83-2.5-10.22-5.19-15.6-6.23-4.19-.8-7.86,1.15-8.6,5.52-.86,5.09,1.49,10.71,2.84,15.49,1.81,6.43,3.59,12.88,5.45,19.29l5.45,18.83a1.43,1.43,0,0,0,2.76-.76Z"/><path class="cls-2" d="M799,258.33c-16.62,18.13-32.2,37.25-47.9,56.17-6.6,8-14.43,16-17.6,26.06-3.35,10.65-.39,22.09,2.84,32.39,3.5,11.18,6.88,22.34,9.45,33.78s5.05,23,4.67,34.7a49.72,49.72,0,0,1-10.14,28.4c-5.84,7.84-13.47,14.3-21.42,19.9-35.69,25.19-79.12,36-120.68,47.23q-35,9.49-70.23,18.3c-11.38,2.84-22.76,5.72-34.18,8.36-10.36,2.4-20.87,4.45-31.51,5-10.42.53-21-.42-30.77-4.17-9-3.44-16.52-9.52-24.33-15-7.33-5.13-15.54-10.09-24.69-10.83-3.41-.28-7.75.56-9.38,4-2.26,4.68,2.76,10.18,5,13.93l8.82,14.91a1.55,1.55,0,0,0,2.67-1.56l-9.32-15.58c-1.37-2.3-3.15-4.74-4-7.28-1-2.89.85-4.4,3.54-4.66,4.16-.4,8.84,1.23,12.58,2.91a74.36,74.36,0,0,1,12,7.14c7.54,5.28,14.73,11.2,23.22,14.93a73.57,73.57,0,0,0,29.63,5.77c21.76,0,43.25-6.31,64.2-11.5q35-8.67,69.88-18c41.24-11,84.38-21.17,121.08-43.86,16.22-10,32.81-22.94,39.74-41.38,3.95-10.53,3.59-21.86,1.93-32.82A280.6,280.6,0,0,0,746.52,392c-3.12-11.06-7.72-21.86-9.84-33.17a36.1,36.1,0,0,1,.44-16.57c1.47-5.14,4.42-9.7,7.63-13.91,7-9.21,14.71-17.94,22-26.89q11.58-14.16,23-28.46c3.6-4.5,7.08-9.08,10.52-13.7.57-.76-.67-1.7-1.3-1Z"/><path class="cls-2" d="M595.5,565c7-1.24,14-3,21-4.72q10.15-2.5,20.27-5.2c13.7-3.67,27.31-7.82,40.62-12.73,23.58-8.68,47.12-20,64.76-38.35a96.51,96.51,0,0,0,19.63-29.42c5-11.88,6.53-24.41,5.76-37.23-.43-7-1.3-14.08-2.09-21.11-.83-7.31-1.71-14.62-2.85-21.9-1.07-6.93-2.59-13.77-3.8-20.68-1.13-6.47-1.79-13.09-.92-19.63,3-22.38,20.58-39.69,36.71-53.88,2.11-1.85,4.24-3.69,6.36-5.53a2.45,2.45,0,0,0,0-3.45,2.5,2.5,0,0,0-3.45,0,218.34,218.34,0,0,0-25.12,23.62c-7.45,8.45-13.94,17.93-17.51,28.69A55.55,55.55,0,0,0,752,360c-.11,7,1.19,13.9,2.57,20.73,2.84,14,4.7,28.18,6.32,42.41,1.51,13.33,2.83,26.77-.61,39.92a83.11,83.11,0,0,1-15.52,30.38c-15.51,19.54-37.71,32.17-60.49,41.43-25.73,10.46-52.61,17.61-79.36,24.9-3.38.92-6.72,1.85-10,2.94a1.19,1.19,0,0,0,.63,2.29Z"/><path class="cls-2" d="M798.26,330.2a50.66,50.66,0,0,0-20.76,19.53c-5.6,9.34-7.9,20.06-7.89,30.88,0,11.63,2.29,23.12,4.35,34.52A220.08,220.08,0,0,1,777.49,444c.86,18.48-1,37.66-8.19,54.86a77.25,77.25,0,0,1-14.11,22.34c-6.84,7.49-15.17,13.32-24,18.18-9.17,5-18.84,9-28.48,13.06l-34.07,14.21c-2.79,1.16-5.57,2.34-8.36,3.52-2.57,1.09-.7,5.63,1.93,4.57,11.39-4.63,22.74-9.36,34.1-14.05,10.21-4.22,20.52-8.28,30.47-13.08,9.35-4.51,18.37-9.82,26.23-16.65a79.19,79.19,0,0,0,17.69-22.18c9-16.63,12.24-35.67,12.28-54.41a193.52,193.52,0,0,0-2.25-28.94c-1.63-11-4.28-21.75-5.61-32.76s-1.38-22.5,2.41-33.12A53.61,53.61,0,0,1,794,336.57a67.88,67.88,0,0,1,5.58-4.11,1.31,1.31,0,0,0-1.33-2.26Z"/><path class="cls-2" d="M796.3,485.9A106.36,106.36,0,0,1,777.81,529,104,104,0,0,1,743,559.64a129.48,129.48,0,0,1-11.87,5.42c-4.37,1.81-8.66,3.93-11.18,8.13-1.45,2.41,2.22,4.51,3.74,2.19,2.1-3.21,5.93-4.84,9.35-6.21a117.83,117.83,0,0,0,11.1-5,104,104,0,0,0,19.74-13.63A105.73,105.73,0,0,0,791.7,512a97,97,0,0,0,6.88-25.74c.15-1.29-2.05-1.6-2.28-.31Z"/><path class="cls-2" d="M427.91,183.63c3.13-8.83,8.07-16.74,13.39-24.38,2-2.83,3.91-6.05,3.36-9.64a6.19,6.19,0,0,0-5.89-5.51c-2.13-.18-4.24-.06-6.36-.36a43.57,43.57,0,0,1-5.84-1.31c-3.89-1.13-7.65-2.67-11.43-4.11-7.11-2.69-14.22-4.66-21.87-3.74a72.07,72.07,0,0,0-19.77,5.88,206.77,206.77,0,0,0-20.65,10.68c-6.17,3.56-12.23,7.3-18.43,10.8-7.63,4.31-15.3,8.53-22.84,13a712.92,712.92,0,0,0-88.27,61.77c-6,4.95-12.78,10-16.49,17a17.8,17.8,0,0,0-2.18,10.12c.4,3.68,2.45,6.7,4,10,2,4.11,2.34,8.73,2.86,13.2a93.72,93.72,0,0,0,2.35,12.44c2.12,8.26,5.17,16.38,10,23.49,8.61,12.79,22.21,20.63,33.48,30.74a60,60,0,0,1,14.5,18.53c3.72,7.75,5.66,16.2,7.38,24.58,3.1,15,5.8,31.45,16.44,43.29,4.56,5.08,10.81,9.68,17.86,6.86,6.06-2.42,10.21-8,16.32-10.4,3.68-1.42,7.65-.59,11.38-1.7,3.55-1.06,5.5-4.08,7.1-7.21,3.52-6.9,5.77-14.34,8.14-21.69,2.44-7.56,5-15.18,9.29-21.95s10.47-12.64,17-17.46c13.19-9.77,28.62-16.21,44-21.66,17.61-6.23,35.71-11.09,53-18.25,13.09-5.43,27.28-12.89,34.35-25.82a27.8,27.8,0,0,0,2.82-19.73c-1.76-7.5-6.42-14-11.67-19.46-11.74-12.2-26.91-21.57-42.58-27.78-7.91-3.13-16.11-5.83-23.18-10.68-6.58-4.53-11.83-10.89-13.55-18.82-1.49-6.94-.23-14.1,2.05-20.72.21-.61-.76-.87-1-.27-2.19,6.33-3.41,13.11-2.33,19.78A30.23,30.23,0,0,0,435,221c6.08,5.29,13.53,8.47,21,11.35a162.54,162.54,0,0,1,22.87,10.43,126.46,126.46,0,0,1,21.31,15.39c5.92,5.31,11.5,11.54,14.45,19a27,27,0,0,1-.65,21.59c-3,6.34-8.15,11.5-13.74,15.65a95.35,95.35,0,0,1-20.24,11C471.47,329,462.76,332,454,334.82c-16.24,5.3-32.65,10.24-48.23,17.33-14,6.37-28,14.65-37.77,26.83-9.51,11.91-12.1,27.31-17.52,41.17-1.41,3.59-2.93,7.54-5.29,10.62-3,4-7.36,3.42-11.78,3.9-6.54.72-11.1,5.61-16.28,9.12-2.57,1.74-5.45,3.2-8.63,3.1-4.18-.13-7.71-2.95-10.56-5.75-5.63-5.54-9.31-12.71-11.88-20.11-5.29-15.23-5.93-31.74-12.26-46.66a57.09,57.09,0,0,0-12.74-18.48c-5.32-5.23-11.31-9.69-17.16-14.3s-11.59-9.38-16.3-15.14a65.52,65.52,0,0,1-11.49-22.54,98,98,0,0,1-3.07-12.65c-.7-4.17-.86-8.43-1.76-12.57-.81-3.75-2.69-6.77-4.28-10.2a15.12,15.12,0,0,1-.43-11.82c2.76-7.53,9.66-12.87,15.64-17.79q10.31-8.49,20.91-16.6,21.14-16.14,43.43-30.65t45.32-27.15c12.64-7,24.7-15,37.75-21.17a86.93,86.93,0,0,1,20.06-7.15,38.39,38.39,0,0,1,10.31-.79,45.25,45.25,0,0,1,11.52,2.7c7.3,2.55,14.42,6.06,22.22,6.83,1.93.19,4-.06,5.86.31a5.06,5.06,0,0,1,4,4.25c.87,4.36-2.42,8.14-4.71,11.46a96.61,96.61,0,0,0-12,22.44C426.73,184,427.7,184.23,427.91,183.63Z"/><path class="cls-2" d="M412.81,216c11.94,27.36,44.67,33.09,67.5,47.75,6.16,4,12,8.76,15.56,15.24,3.3,5.94,4,12.92.4,18.89-3.11,5.15-8.43,8.56-13.7,11.16-6.63,3.28-13.69,5.74-20.56,8.43-8,3.12-16.05,6-24,9.2-8.15,3.26-16.25,6.61-24.47,9.69-7.81,2.93-15.69,5.67-23.51,8.6-7.06,2.65-14.09,5.64-20.19,10.15-10.93,8.06-18.46,19.74-23,32.4a101.18,101.18,0,0,0-3,10c-.79,3.16-1.31,6.38-2.05,9.56-.65,2.81-1.52,5.85-3.65,7.92-2.39,2.33-5.84,2.34-9,2.39-3.28.06-6.73.16-9.62,1.92-2.5,1.52-4.21,3.93-6.33,5.89-2,1.82-4.45,2.7-6.82,1s-3.75-4.53-4.74-7.1c-4.67-12.13-7.9-24.78-12.16-37.06-4.07-11.71-9-23.49-16.55-33.42a64.77,64.77,0,0,0-12.95-12.88c-5.38-4-11.41-6.95-17-10.59s-10.51-8-13.31-14.17c-3-6.54-3.56-13.89-4.72-20.91a78.91,78.91,0,0,0-2.54-10.73c-1.17-3.72-2.52-7.5-2.66-11.43-.24-6.88,3.4-13,7.84-17.91,4.91-5.48,10.82-10,16.54-14.59q9.59-7.67,19.45-14.94c13.05-9.62,26.5-18.84,40.26-27.41,14.22-8.87,28.86-17.09,43.76-24.76,7.23-3.72,14.64-7,22-10.47,3.45-1.64,6.74-3.5,10.05-5.4A40.53,40.53,0,0,1,389,148.1a20.8,20.8,0,0,1,11.07.14c4,1.09,7.86,2.4,12,3.14,2,.35,4,.64,6,.91a26.33,26.33,0,0,1,5.67.93c.83.32,1.35.66,1.29,1.56a7.62,7.62,0,0,1-1.27,3c-1.2,2-2.72,3.81-4.07,5.72a51.11,51.11,0,0,0-4.65,8.85,67.49,67.49,0,0,0-6,22.14,45.37,45.37,0,0,0,3.42,21.66c.69,1.6,3,.22,2.35-1.37-6.55-15.24-2.07-32.54,5.42-46.54a53.52,53.52,0,0,1,4.19-6.31c1.4-1.91,3-4.05,3.4-6.42.46-2.52-1-4.33-3.31-5.13a30.26,30.26,0,0,0-5.67-.95c-2.1-.28-4.19-.59-6.27-1-4.18-.77-8.11-2.18-12.21-3.22a23.56,23.56,0,0,0-10.79-.29c-7.31,1.54-13.46,6.43-20.05,9.68-7.42,3.66-15,6.91-22.37,10.71q-11.61,6-23,12.45A644.4,644.4,0,0,0,241.24,234C231,242.25,217,252.27,216.9,266.93c0,4,1.15,7.87,2.37,11.63a83.89,83.89,0,0,1,2.82,10.79c1.34,7.29,1.9,14.85,4.78,21.76,5.43,13,18.75,18,29.65,25.44,10.71,7.29,18.15,18,23.54,29.63,5.57,12,9.05,24.95,12.9,37.59,1.88,6.14,3.59,12.54,6.25,18.4,2.44,5.39,7.86,10.84,14.07,7.2,2.55-1.49,4.26-4,6.41-5.94,2.56-2.31,5.67-2.54,9-2.59s7.07-.08,10.07-2a14.06,14.06,0,0,0,5.43-7.45,70.22,70.22,0,0,0,2.17-9.17c.74-3.46,1.64-6.89,2.71-10.26a85.47,85.47,0,0,1,8.5-18.82,55.57,55.57,0,0,1,13.82-15.52c6.28-4.7,13.56-7.76,20.86-10.52q12.18-4.59,24.4-9.1c8.3-3,16.7-5.84,24.92-9.08s16.3-6.46,24.43-9.72c6.81-2.72,13.81-5.24,20.18-8.91,5.12-3,10.16-6.76,12.94-12.12,3.09-6,2.69-12.73-.07-18.74-3.08-6.7-8.61-12-14.43-16.4-6.08-4.57-12.84-8-19.71-11.22-13.16-6.12-27.06-11.51-38.21-21.08A45.53,45.53,0,0,1,414.41,215C413.91,214,412.34,214.9,412.81,216Z"/><path class="cls-2" d="M406.26,240.72c-14.56-14.71-17.53-38.54-9.53-57.25.49-1.14,1-2.26,1.6-3.37a25.48,25.48,0,0,0,2.15-4.31c1-3.23-.67-6.47-2.8-8.84a14.81,14.81,0,0,0-15.3-4.11,27.23,27.23,0,0,0-8.3,4.91c-2.51,2-5,4-7.57,5.9-5.3,3.9-10.8,7.52-16.39,11-11.1,6.9-22.73,12.93-33.68,20.07-11.76,7.67-23.31,15.71-34.81,23.76C275.74,232.6,270,236.9,264.11,241c-5.53,3.91-11.22,7.66-16.59,11.79-4.84,3.73-8.53,8.22-9.8,14.33-1.22,5.9-.8,12.17-.38,18.14.39,5.64,1.25,11.42,4,16.46,2.91,5.4,7.86,8.6,13.12,11.43a96.3,96.3,0,0,1,26.77,21,86.34,86.34,0,0,1,17.22,29.57c2.17,6.42,3.79,13,6.4,19.28,2.23,5.33,5.27,10.62,10.27,13.79,4.41,2.79,10.68,3.4,15.18.46,5.05-3.3,6-9.87,7.56-15.25,3.43-12,7.58-23.93,16.29-33.21,7.74-8.24,17.69-14.19,28.08-18.48,11.71-4.83,24.24-7.41,36.53-10.29C431.58,317,445,314.45,457,309c8.83-4,18.56-11.61,17.27-22.48-1.34-11.31-12.82-17.88-22.1-22.24-10.62-5-21.9-8.56-32.23-14.21a64.21,64.21,0,0,1-13.45-9.57c-1.4-1.33-3.52.79-2.12,2.12,8.22,7.77,18.56,12.55,28.88,16.87,5.32,2.23,10.68,4.35,15.92,6.76,4.9,2.26,9.87,4.71,14.05,8.17,3.88,3.21,7.56,7.57,7.94,12.81.36,4.83-2,9-5.38,12.29a39.09,39.09,0,0,1-13,7.71,168.21,168.21,0,0,1-18.6,5.8c-12.82,3.32-26.1,5.1-38.72,9.18-10.65,3.46-21.18,7.34-30.66,13.42A63.71,63.71,0,0,0,342.19,360a104.18,104.18,0,0,0-6.75,17.69c-.87,2.93-1.68,5.89-2.53,8.84-.74,2.56-1.61,5.31-3.68,7.13-3.86,3.36-10,2.12-13.7-.74-4.59-3.51-7.15-9.18-9.14-14.43-2.32-6.14-4-12.51-6.33-18.63a99.21,99.21,0,0,0-7.2-14.85,92.72,92.72,0,0,0-21.49-24.94,95.86,95.86,0,0,0-13.86-9.26c-5-2.77-10.14-5.46-13-10.69-2.64-4.78-3.32-10.43-3.65-15.8-.35-5.71-.87-11.82.58-17.41,1.49-5.77,5.65-9.54,10.32-12.9,5.59-4.05,11.26-8,16.91-12s11.34-7.68,17-11.54,11.6-7.89,17.45-11.76c10.94-7.25,22.23-14,33.53-20.63,10.95-6.47,22-12.86,32.31-20.32,2.58-1.87,5.1-3.81,7.59-5.8,2.17-1.73,4.48-3.59,7.15-4.48,4.43-1.47,10.09.46,12,5,.56,1.31.16,2.26-.49,3.44s-1.27,2.34-1.84,3.54a59.23,59.23,0,0,0-2.82,7.19A55.94,55.94,0,0,0,388.11,202a57.33,57.33,0,0,0,1.62,15,52.08,52.08,0,0,0,15,25.35A1.11,1.11,0,0,0,406.26,240.72Z"/><path class="cls-2" d="M275.6,261.07c-3.36,2.22-7,4.62-8.64,8.46s-1.44,8.2-1.21,12.31c.25,4.3.53,8.71,2.08,12.77a24.17,24.17,0,0,0,7.51,9.95c3.21,2.65,6.73,4.89,10,7.43a97.57,97.57,0,0,1,9.05,7.82A62.68,62.68,0,0,1,308.24,339a54.87,54.87,0,0,1,3.17,10.73c.72,3.3,1.73,7,4.43,9.28,3.22,2.71,7.59,2.4,10.85-.06,3.65-2.76,4.88-7.11,6-11.32,4.51-16.37,18.14-27.63,33.38-33.88a135,135,0,0,1,26.94-7.46A189.32,189.32,0,0,1,422.61,303c6.33-.14,14.71-.32,18.61-6.25,2.24-3.42,1.79-7.72-.15-11.14-2.1-3.69-5.54-6.39-9-8.72-7.07-4.75-15.08-7.79-22.64-11.63-7.27-3.7-13.82-8.35-18.84-14.85-9.33-12.08-12.32-27.79-13.69-42.63-.37-4-1.55-8.35-6.11-9.09-4-.64-8.13,1.06-11.44,3.15s-6.27,4.77-9.48,7.06c-4,2.84-8.14,5.44-12.19,8.18-16.85,11.44-33.56,23.08-50.37,34.58-4.1,2.8-8.19,5.62-12.29,8.41-2.2,1.5-.12,5.09,2.09,3.58,16.14-11,32.39-21.81,48.57-32.74,8.16-5.52,16.31-11,24.4-16.66,3.17-2.19,6-4.73,9.1-7,2.78-2.1,6-4.15,9.63-4.3,1.63-.08,2.72.41,3.24,2a24.21,24.21,0,0,1,.72,5.1c.37,3.75.86,7.49,1.53,11.19a83.24,83.24,0,0,0,6.63,21.19,55,55,0,0,0,13.33,17.91c6.19,5.39,13.55,8.9,20.91,12.35,3.69,1.73,7.4,3.45,10.95,5.45a38,38,0,0,1,9.62,7.05c2.22,2.43,4.13,6,2.26,9.21-1.41,2.4-4.35,3.35-6.92,3.88-3.42.71-6.93.59-10.41.69-4.78.12-9.54.44-14.3.83a152,152,0,0,0-28,5.1c-16.22,4.49-31.71,12.17-42.08,25.82a47.57,47.57,0,0,0-5.81,10,50.32,50.32,0,0,0-2,5.83,32.08,32.08,0,0,1-1.89,5.6c-1.22,2.46-4.35,5.74-7.31,3.75-2.33-1.56-3-5.2-3.54-7.76a55.06,55.06,0,0,0-9.13-20.55,84.09,84.09,0,0,0-16.35-16.61c-3.1-2.44-6.35-4.65-9.58-6.91s-6.36-4.67-8.39-8c-2.16-3.59-2.83-7.87-3.26-12s-1.07-8.32,0-12.28c1.09-4.17,4.16-6.7,7.53-9.08C277.43,262,276.57,260.44,275.6,261.07Z"/><path class="cls-2" d="M305.07,258.41c-4.42,2.66-9.05,5.45-12.13,9.68a18.38,18.38,0,0,0-2.77,15.23c1.34,5.59,4.51,10.59,7.92,15.13,3.92,5.23,8.08,10.3,12.13,15.44l6.3,8c1.8,2.29,3.56,4.77,6.73,5,5.49.33,8.81-5.54,11.78-9.19a57.86,57.86,0,0,1,25.34-18,68,68,0,0,1,16.16-3.39c6-.62,12.08-1,17.88-2.71,2.49-.74,5.26-1.65,7.08-3.6a7.77,7.77,0,0,0,1.86-6.83c-1-5.52-6-8.35-10.71-10.3a48.71,48.71,0,0,1-6.83-3.18,28.9,28.9,0,0,1-5.24-4.18A41.42,41.42,0,0,1,372.81,254a77.11,77.11,0,0,1-4.74-13.19c-1.15-4.24-1.64-9.13-4.66-12.55-5.32-6-13.73.12-18.7,3.39-10.55,6.95-21.17,13.77-31.72,20.73l-8.24,5.45c-1.87,1.24-.15,4.25,1.77,3,10.57-6.69,21.18-13.31,31.66-20.14,4-2.59,7.86-5.31,11.83-7.89,2.38-1.55,5.36-3.51,8.11-3.42a3.68,3.68,0,0,1,2.71,1.42,13,13,0,0,1,2.33,5.22c1.12,4.27,2.14,8.52,3.66,12.67,3,8.26,7.41,16.33,14.51,21.77a28.86,28.86,0,0,0,5.58,3.39c2.34,1.07,4.81,1.85,7.13,3a11.27,11.27,0,0,1,5.36,4.63c.94,1.75,1.31,4.1,0,5.78-1.51,1.93-4.52,2.62-6.76,3.21a57.13,57.13,0,0,1-8.43,1.45c-5.65.59-11.34.8-16.93,1.9a62.91,62.91,0,0,0-26.66,12.52,60,60,0,0,0-10.48,10.7A16.8,16.8,0,0,1,325.2,322c-2.23,1.22-3.5-.6-4.81-2.24q-5.86-7.37-11.75-14.71a172.58,172.58,0,0,1-10.54-13.86c-2.74-4.23-5.1-9.13-4.79-14.3.3-4.94,3.48-8.9,7-12.06a63.16,63.16,0,0,1,5.86-4.45C307.37,259.54,306.33,257.65,305.07,258.41Z"/><path class="cls-2" d="M357.4,253.68c0-5.07-4.35-10.09-9.61-7.49a20.59,20.59,0,0,0-3.32,2.32,38.47,38.47,0,0,1-4,2.65c-2.67,1.56-5.49,2.84-8.28,4.15-5.91,2.77-11.41,6.36-17.07,9.59a17.48,17.48,0,0,0-6.68,6,15.93,15.93,0,0,0-2.08,7.71c-.16,5.93,2.57,11.2,6.2,15.71a47.3,47.3,0,0,0,6.22,6.59,7.05,7.05,0,0,0,8.12,1c2.48-1.26,4.29-3.47,6.21-5.41a30.56,30.56,0,0,1,6.66-5.09,30.25,30.25,0,0,1,7.79-3.07c3.14-.76,6.38-1.07,9.4-2.29a12.61,12.61,0,0,0,6.82-5.78,10.15,10.15,0,0,0-.21-8.85c-1.2-2.63-3.12-4.86-4.34-7.49-1.5-3.22-.78-6.77-1-10.19C358,251,354,251,354,253.68a45.25,45.25,0,0,0,.31,8.86,20,20,0,0,0,2.92,6.69,21.74,21.74,0,0,1,2.95,5.75,5.27,5.27,0,0,1-1.74,5.22,13.11,13.11,0,0,1-6.49,2.88,82.5,82.5,0,0,0-8.1,1.83,35.14,35.14,0,0,0-13.26,7.9c-1.73,1.65-3.24,3.66-5.31,4.91a3.27,3.27,0,0,1-2.25.62c-1.14-.22-2-1.35-2.76-2.13-3.56-3.61-7.31-7.57-8.87-12.52-1.27-4.06-1-9,2.13-12.14,1.9-1.9,4.47-3,6.79-4.26,2.6-1.44,5.08-3.07,7.62-4.61,5.35-3.23,11.29-5.57,16.36-9.26,1.3-.95,2.5-2,3.73-3,.9-.77,2-1.7,3.3-1.48,2.07.37,3.22,2.92,3.44,4.78C355,255.31,357.38,255.42,357.4,253.68Z"/><path class="cls-3" d="M144.53,271.5c-13-5.19-24.94-13-38.41-16.74a6.49,6.49,0,0,0-4.12-.17c-1.74.71-2.57,2.73-2.73,4.6-.43,5.16,2.8,9.86,6.08,13.86,19.45,23.75,44.77,45.15,48,77.81,1.59,16-3.48,32-3.28,48.16a75.16,75.16,0,0,0,33.79,61.14c20.73,13.37,46.51,15.52,71.12,17.29,5.4.39,11.13.72,15.92-1.81,9.46-5,10.48-18.6,6.49-28.54S265.92,428.94,262,419c-5.87-15.1-3.05-33.07-11.36-47-8-13.35-23.52-18-33.52-29.47a72.65,72.65,0,0,1-18-44.77c-.26-7.41,0-16.23-6.09-20.47-5.81-4-10.16-.85-16.07-.29a67.66,67.66,0,0,1-25.55-3C149.12,273.25,146.81,272.42,144.53,271.5Z"/><path class="cls-2" d="M144.75,270.69c-11.2-4.56-21.36-11.32-32.75-15.49-2.59-.95-5.58-2.27-8.38-2.31a5.61,5.61,0,0,0-5.39,4.16c-1.79,5.3,1.41,11,4.51,15.1,6.16,8.15,13.29,15.59,20,23.33a188,188,0,0,1,18.06,24,74.2,74.2,0,0,1,10.6,27.93c1.86,12.46-.68,24.86-2.16,37.21a99.36,99.36,0,0,0-.8,18.24,74.88,74.88,0,0,0,2.55,15.08,78.12,78.12,0,0,0,13.89,27.32,74.73,74.73,0,0,0,23.91,19.91c10,5.28,21,8.42,32.08,10.4,11.28,2,22.73,2.91,34.16,3.73,5.66.4,11.65.67,16.83-2.08a17.66,17.66,0,0,0,8.13-9.83c3.27-9.06.64-18.79-3.79-26.92-2.77-5.09-6.12-9.83-9-14.86a54.84,54.84,0,0,1-6-15.69c-2.29-10.64-2.19-21.86-6-32.16a38.56,38.56,0,0,0-8.13-13.23,69.37,69.37,0,0,0-11.38-9.33c-4-2.76-8.09-5.38-11.83-8.47a56.61,56.61,0,0,1-10.45-11.56A70.33,70.33,0,0,1,201.23,304c-.63-5-.38-10.06-.92-15.06-.48-4.45-1.69-9.18-5.23-12.21a12.73,12.73,0,0,0-7.48-3.15,26.12,26.12,0,0,0-7.33,1.08c-5.83,1.31-12.12.9-18-.08A84.21,84.21,0,0,1,145,269.66a1.93,1.93,0,0,0-2.35,1.34,2,2,0,0,0,1.34,2.35,79.18,79.18,0,0,0,17.27,4.84c5.89.91,12.12,1.35,18,.25,2.34-.43,4.65-1.3,7-1.44a9,9,0,0,1,6.74,2.4c3.28,3,4,7.79,4.27,12,.35,5,.34,10,1.15,15.05a73.5,73.5,0,0,0,4.36,15.62c3.88,9.66,9.71,19.08,17.57,26,7.11,6.26,15.68,10.65,22.58,17.16a35.55,35.55,0,0,1,8.44,11.9,62.22,62.22,0,0,1,3.87,15.25c1.62,10.77,2.14,21.61,7.06,31.55,4.68,9.45,12.42,17.82,14.75,28.32,1.66,7.44.66,17.29-6.59,21.52-4.78,2.78-10.69,2.22-16,1.84-5.53-.4-11.05-.82-16.56-1.38-21.27-2.15-43.59-6.68-60.3-21A74,74,0,0,1,152,401.69c-.64-12.16,2.06-24.14,3-36.21a76.35,76.35,0,0,0-4.07-32.12A99.8,99.8,0,0,0,137,307.91c-5.85-7.87-12.39-15.18-18.91-22.49-3.29-3.69-6.58-7.38-9.77-11.15s-7.48-8.43-7.64-13.84a6.59,6.59,0,0,1,.59-3.25,2.74,2.74,0,0,1,3.22-1.36,45.62,45.62,0,0,1,8.43,2.67c5.47,2.07,10.75,4.55,16,7.07,5,2.4,10.17,4.69,15.35,6.76C145.31,272.72,145.74,271.09,144.75,270.69Z"/><path class="cls-2" d="M151.37,285c-2-.39-4.2-.72-6.12.26a6.39,6.39,0,0,0-2.95,3.42c-1.41,3.53-.21,7.16,1.94,10.09,2.39,3.24,5.39,6,7.68,9.3a59.12,59.12,0,0,1,5.55,10.11c3.1,7.28,4.52,15.07,5.38,22.89a213.5,213.5,0,0,1,1.28,24.11c-.07,16.28-.56,32.91,3.8,48.76a57.62,57.62,0,0,0,27.39,36.25,104,104,0,0,0,21.3,9.37,192.75,192.75,0,0,0,23.43,6.06c7.66,1.47,17.71,1.21,22-6.61s-1.05-16.42-4.72-23.22a81,81,0,0,1-8.71-26.21c-1.35-8.75-1-18-5-26.11-3.31-6.79-9.23-11.74-15.24-16.07-6.35-4.57-12.88-8.8-18.4-14.39a61.73,61.73,0,0,1-12.29-17.83,78.07,78.07,0,0,1-5.83-20.65c-.57-3.76-.86-7.54-1.12-11.33-.24-3.33-.69-6.93-2.58-9.77-2.36-3.54-6.15-4.28-10.16-4.26a62.85,62.85,0,0,1-13.45-1.55c-4.39-.94-8.75-2-13.21-2.61-1.21-.16-1.73,1.69-.51,1.86,8.67,1.18,17,4.3,25.8,4.58,2.14.07,4.39-.08,6.4.75a6.73,6.73,0,0,1,3.42,3.35c1.54,3.06,1.55,6.71,1.78,10.05,1,13.92,4.19,27.8,12.13,39.49a68.52,68.52,0,0,0,14.93,15.66c5.83,4.51,12.21,8.29,17.74,13.18a37.16,37.16,0,0,1,7.11,8.16,32.38,32.38,0,0,1,4.1,11.65c.73,4.25.93,8.57,1.38,12.86a77.15,77.15,0,0,0,2.38,13A93.13,93.13,0,0,0,252.57,432c1.73,3.87,3.92,7.49,5.72,11.32,1.67,3.53,3.27,7.7,2.39,11.66a10.8,10.8,0,0,1-7.28,7.67c-4.15,1.48-8.61,1-12.84.18-4-.8-7.9-1.81-11.82-2.84a158.85,158.85,0,0,1-21.48-7,74.43,74.43,0,0,1-19-11.16,53.8,53.8,0,0,1-13.9-17.75c-6.88-14.16-7.74-30.44-7.79-45.92s1-31.17-2.16-46.44a76.69,76.69,0,0,0-7.32-21,50.94,50.94,0,0,0-6.48-9.21c-2.37-2.7-5.82-5.54-6.16-9.37a5.53,5.53,0,0,1,1.07-4.05c1.35-1.61,3.67-1.39,5.55-1.2C152.19,287,152.44,285.21,151.37,285Z"/><path class="cls-2" d="M173.79,335.23c-.38,7.07-.2,14.15,0,21.23.18,6.89.31,13.8,1,20.67,1.19,12.07,3.6,24,8.5,35.13,4.43,10.06,10.59,19.51,19.26,26.41a59.51,59.51,0,0,0,15.7,8.82c3.08,1.2,6.23,2.23,9.39,3.2a38.48,38.48,0,0,0,9.71,2.06c5.19.19,11-2.3,12.65-7.63,1.86-6.16-3-11.75-5.85-16.7a62.8,62.8,0,0,1-6.95-18.13c-1.34-6.24-2.08-12.64-4.22-18.69-3.74-10.64-12.29-17.82-21-24.47-4.25-3.26-8.73-6.42-12.47-10.28a44.87,44.87,0,0,1-8.58-13.2c-4.35-9.84-6-20.61-8-31.11-.74-4.05-2.09-8.26-5.14-11.18-2.71-2.6-6.34-3.73-10-4.22a51.88,51.88,0,0,0-6.71-.41,1.43,1.43,0,0,0-1.26.73c-1.55,3.55,1.25,6.9,3,9.82s3.52,5.76,5.08,8.75a45.34,45.34,0,0,1,5.36,19.2c.07,1.5,2.39,1.51,2.35,0a46.3,46.3,0,0,0-4.41-18.57c-1.34-2.87-2.9-5.63-4.5-8.36q-1.25-2.13-2.51-4.24c-.77-1.31-2.58-3.53-1.86-5.12l-1.27.72c3.83.08,8,.2,11.55,1.79a11.82,11.82,0,0,1,6.2,7.1c1.67,4.62,2.1,9.74,3.06,14.54a127.66,127.66,0,0,0,3.8,15,62,62,0,0,0,6.52,14.15,47.46,47.46,0,0,0,10.14,11.07c7.91,6.49,17.1,11.86,23.21,20.27A39.11,39.11,0,0,1,232,399.44c1.18,6.09,1.88,12.25,3.78,18.18a71.13,71.13,0,0,0,8.09,16.49c1.49,2.34,3.17,5,3.38,7.82a6.82,6.82,0,0,1-3.37,6.29c-5.25,3.3-11.72,1-17.09-.77a81.4,81.4,0,0,1-17.59-7.6c-9-5.5-16-13.77-21-22.93-12-21.85-11.82-47.83-12.37-72.05-.08-3.23-.28-6.43-.64-9.64A.69.69,0,0,0,173.79,335.23Z"/><path class="cls-2" d="M191.74,407c4.91,12.19,13.44,23.3,25.25,29.46a42.39,42.39,0,0,0,9.09,3.53c3.18.82,7.28,1.17,9-2.28,1.45-2.83.07-6.26-1.34-8.82-1.89-3.4-3.94-6.63-5.52-10.21-3.09-7-4.4-14.38-6.17-21.77-1.71-7.1-4.8-13.35-10.53-18-2.84-2.31-6-4.2-8.83-6.51a39.4,39.4,0,0,1-7.45-8.43c-1-1.5-2-3-3-4.56a30,30,0,0,0-3.1-4.53,4.32,4.32,0,0,0-4.39-1.54c-1.69.53-2.24,3.12-2.49,4.67-.6,3.73.25,7.43.78,11.11s.9,7.37,1.33,11.05c.88,7.54,2,15.1,4.77,22.22a40.4,40.4,0,0,0,2.4,5c.82,1.48,2.84.18,2.2-1.29-3.43-7.93-4.57-16.58-5.62-25.09-.52-4.21-1-8.43-1.67-12.62s-2.07-8.74,0-12.61l-1,.74c.89-.34,1.64.8,2.1,1.44.82,1.15,1.57,2.36,2.34,3.54,1.37,2.09,2.74,4.19,4.25,6.19a39.45,39.45,0,0,0,5.28,5.83,62.16,62.16,0,0,0,6,4.46c4.23,2.9,8.11,5.9,10.35,10.65,2.12,4.48,3,9.55,4,14.37a79.06,79.06,0,0,0,4.39,15.24,72.5,72.5,0,0,0,3.58,7.43c1.2,2.16,2.72,4.18,3.73,6.43.59,1.33,1.52,3.79-.1,4.79s-4.82-.14-6.59-.66a41.88,41.88,0,0,1-12.07-5.93c-8.49-5.95-15-14.65-19.16-24.07C193.13,405.2,191.3,406,191.74,407Z"/><path class="cls-2" d="M214.31,422.28c1.27,1,2.69,1.49,4.17.55a4.58,4.58,0,0,0,1.7-4.69c-.56-3.81-2.87-7.38-4.93-10.55a84.46,84.46,0,0,1-5.84-10.74c-1.75-3.84-3.07-7.8-4.51-11.75-1.2-3.31-3.24-7-7.15-7.46a4.42,4.42,0,0,0-4.48,2.34,8,8,0,0,0-.44,5,73.37,73.37,0,0,0,2.55,9.9A81.4,81.4,0,0,0,199.27,405c3.37,7.21,8.15,13.8,14.72,18.41,2.2,1.54,4.3-2.08,2.11-3.61-9.57-6.67-14.51-18.16-17.48-29.05-.65-2.4-1.62-5.08-1.67-7.59,0-.65-.12-1.27.59-1.16,1.24.21,2.08,1.65,2.6,2.64,1.43,2.75,2.2,5.86,3.4,8.72a98,98,0,0,0,4.85,10c1.79,3.18,4,6,6,9.07a25.34,25.34,0,0,1,2.59,4.7,4.75,4.75,0,0,1,.54,3c-.33,1.08-1.11,1.12-2,.62S213.36,421.55,214.31,422.28Z"/><path class="cls-2" d="M310.8,592q-2.57-16.54-6-32.92A268.26,268.26,0,0,0,298.07,532c-4.88-15.07-13.38-30.26-29.44-35.26-9.31-2.9-19.31-2.29-28.94-2.43a203.12,203.12,0,0,1-29.05-2.16,99.63,99.63,0,0,1-28.12-8.4,79.12,79.12,0,0,1-21.42-15.4c-12.42-12.46-21-28.51-25.82-45.36a96.56,96.56,0,0,1-3.52-27.42c.09-9.78,1.08-19.52,1.45-29.28.36-9.51.18-19.15-2.18-28.42a61.78,61.78,0,0,0-11.87-23.12c-5.28-6.68-11.38-12.66-16.68-19.32a62.11,62.11,0,0,1-7-10.72,56.18,56.18,0,0,1-4.5-13.8c-2-9.39-3.39-18.7-7.77-27.36a72.42,72.42,0,0,0-16-20.58c-14.39-13.09-32.48-20.49-50.77-26.35-4.82-1.55-9.67-3-14.52-4.47-1.91-.58-2.71,2.39-.82,3,18.93,6,38.26,12.23,54.69,23.7a79,79,0,0,1,18.94,18.27A63.39,63.39,0,0,1,85.26,262c1.93,9.42,3.35,18.83,8.25,27.28,4.17,7.22,9.92,13.38,15.47,19.54s11.2,12.63,14.84,20.25c4.15,8.71,5.63,18.42,5.9,28,.52,19.06-3.51,38.23-.08,57.2a110.88,110.88,0,0,0,20.66,46.92,86.33,86.33,0,0,0,42.2,30.24c18.31,5.94,37.55,6.17,56.59,6.41,9.49.12,19.24.94,27.33,6.38,6.51,4.38,11.09,11,14.42,18A115.8,115.8,0,0,1,298.39,545q3.83,15.78,6.75,31.76c1,5.36,1.91,10.73,2.77,16.11.3,1.9,3.18,1.09,2.89-.8Z"/><path class="cls-2" d="M17.39,216.22c13.05,8.21,26.33,17.06,36.2,29.09a56.85,56.85,0,0,1,10.67,19.58c2.6,8.65,2.64,17.8,4.81,26.54,3.73,15.05,15.41,24.83,25.7,35.56,5.18,5.41,10.1,11.26,13,18.25,3.37,8.16,4.13,17.11,4.29,25.85.16,8.32,0,16.63.26,25,.3,8,.9,15.91,1.93,23.81,2,15.63,5.65,31.15,12.13,45.57,6.37,14.15,15.78,27.6,28.31,36.95a50.88,50.88,0,0,0,23.68,9.56c9.1,1.27,18.31.84,27.46,1.3A159.18,159.18,0,0,1,235,517.41c8.11,2,17.63,4,24,9.81,6.54,5.95,8.45,15.44,11.09,23.5l9.3,28.37q2.32,7.1,4.7,14.17c.8,2.34,4.49,1.36,3.73-1-3.09-9.72-6.34-19.4-9.53-29.09-3-9-5.53-18.2-9.15-26.92a32,32,0,0,0-6.51-10.49,31,31,0,0,0-10.14-6.52c-8.37-3.54-17.54-5.58-26.47-7.13a184.93,184.93,0,0,0-28.78-2.49c-9.09-.15-18.38-.16-27.14-3-15.8-5-27.78-19.27-35.78-33.19-16.11-28-18.58-61.43-18.35-93.07.06-9,.07-18-1.72-26.84a50.85,50.85,0,0,0-9.82-21.27c-8.93-11.5-21.85-19.86-28.63-33-4.19-8.13-4.63-17.37-6-26.24a58.59,58.59,0,0,0-8-22.06c-8.11-13-20.63-22.61-33.4-30.66-3.24-2-6.53-4-9.83-5.93a1.08,1.08,0,0,0-1.09,1.86Z"/><path class="cls-2" d="M21,233.85a47.83,47.83,0,0,1,25.46,32.83c3.29,15.69.23,32.53,8.2,47.12,6.52,11.94,17.91,20.14,27,30,4.87,5.28,9,11.12,11.5,17.92,2.79,7.71,3.64,15.93,4,24.07s.38,16.17,1,24.24a219.22,219.22,0,0,0,3.27,24.87,185.23,185.23,0,0,0,15.52,46.9c6.81,13.81,15.48,27.83,28,37.16,11.32,8.44,25.33,10.81,39,12.3,13.29,1.44,27.48,1.78,39.84,7.42a42,42,0,0,1,16.07,12.66c4.52,5.92,7.61,12.84,10.16,19.8,1.27,3.47,2.43,7,3.63,10.48.76,2.22,4.25,1.3,3.55-1-4.3-14-9.65-29.08-21.41-38.58-10.64-8.59-24.3-11.14-37.54-12.64-13.56-1.53-27.63-2-40.44-7.18-14.63-6-24.62-18.67-32.37-31.94a173,173,0,0,1-18.54-46.73c-3.93-16.23-5.42-32.67-5.85-49.32-.41-15.74-1.33-32.15-10.9-45.36-8-11.11-19.82-18.74-28.26-29.5A44.19,44.19,0,0,1,53,299.21c-1.39-8.13-1.12-16.43-2-24.61-.81-7.6-2.56-15-6.27-21.68A49.09,49.09,0,0,0,31,237.3,48,48,0,0,0,22,232.07c-1.19-.54-2.25,1.18-1.05,1.78Z"/><path class="cls-2" d="M22.58,269.86C31.3,276.14,34.69,287,36.4,297.13c1.9,11.17,1.9,22.78,6.51,33.31,4,9.14,11.72,15.38,19.21,21.57,6.91,5.7,13.31,11.87,15.72,20.79,1.69,6.26,1.61,12.92,1.57,19.35a133.15,133.15,0,0,0,.92,20.26c1.83,12.32,6.37,24,9.88,35.91s5.71,24,3.81,36.32c-1.85,12-6.63,23.32-12.8,33.68-13,21.87-32,39.34-47.17,59.62q-2.84,3.76-5.46,7.69c-1.4,2.07,2,4,3.34,2,14.44-21.62,33.93-39.31,48.22-61,6.71-10.2,12.38-21.31,15.47-33.17a76,76,0,0,0,.24-36.55c-2.83-12.31-7.69-24-10.72-36.29a89.85,89.85,0,0,1-2.67-19.72c-.15-7,.22-14-.46-21a38.52,38.52,0,0,0-4.2-15,41.32,41.32,0,0,0-8.22-10.17c-6.83-6.36-15-11.45-20.58-19.08-13.42-18.31-4.79-44.88-19.81-62.53a27.51,27.51,0,0,0-5.61-4.94c-1.08-.72-2,1-1,1.72Z"/><path class="cls-2" d="M51.07,577.17a198.45,198.45,0,0,0,44.6-55.55c3.21-6,6.1-12.08,8.73-18.32l-1.88,1.42c4.7.31,8.17,3.56,11,7.07,3.18,4,5.67,8.52,8.9,12.5,7.32,9,18,14.84,29,18.07,13.27,3.9,27.23,4.37,40.93,5.46,6.71.53,13.48,1.2,19.9,3.34a42.14,42.14,0,0,1,14.24,8.22c9.58,8.29,15.68,19.45,21.79,30.34,1.3,2.32,4.55.28,3.5-2.05-4.71-10.4-10.86-20.65-19.08-28.67a50.5,50.5,0,0,0-13.7-9.7c-6.23-2.91-12.93-4.21-19.73-4.93-14-1.46-28-1.39-41.78-4.62-11.4-2.69-22.8-7.62-30.84-16.39-7.17-7.82-11.85-21.75-24.12-22.52a2,2,0,0,0-1.87,1.42A216,216,0,0,1,63.4,561.51q-6.55,7.41-13.77,14.22c-1,.91.46,2.29,1.44,1.44Z"/><path class="cls-2" d="M29.12,320.18C24.61,337.49,38.24,351.94,48,364.4c4.87,6.18,9.45,12.87,11.18,20.68,2,9.15-.68,18.49,0,27.72.68,8.89,4.52,16.81,8,24.86,3.32,7.61,5.46,15.38,5.47,23.73,0,16.49-6.9,32.34-16.75,45.3C45.75,520.16,32.32,531,18.82,541c-1.73,1.29-3.47,2.58-5.19,3.88a2.93,2.93,0,0,0-1,3.88,2.85,2.85,0,0,0,3.88,1c14.18-10,28.22-20.89,39.53-34.12C67.2,502.6,75.48,487,77.63,469.78a59,59,0,0,0-2-24.86C73,436.6,68.49,429,66,420.69a43.93,43.93,0,0,1-1.73-13.05c0-4.7.39-9.4.27-14.11a39.85,39.85,0,0,0-2.34-13,52.5,52.5,0,0,0-5.74-10.8c-4.68-6.88-10.56-12.81-15.56-19.44s-9.76-14.66-10.32-23.25a24.3,24.3,0,0,1,.41-6.37c.24-1.19-1.52-1.7-1.83-.51Z"/><path class="cls-2" d="M80.32,570c2.83-4.61,5.63-9.24,8.51-13.82,2.64-4.18,5.12-8.52,8-12.53,2.11-2.91,4.93-6.09,8.73-6.49s7.31,2.08,10.24,4.29c3.3,2.49,6.44,5.05,10.28,6.69a59.39,59.39,0,0,0,11.61,3.38c7.55,1.54,16.09,2.55,22.06,7.89,7.21,6.44,8.54,16.46,13.42,24.36,1.41,2.27,4.68.29,3.54-2.07-1.92-4-3.66-8-5.46-12.09a42.82,42.82,0,0,0-6.77-11.21c-5.86-6.57-14.51-8.55-22.79-10.17a83.72,83.72,0,0,1-12.21-3c-4.06-1.45-7.38-3.9-10.77-6.5s-7-5.14-11.38-5.51-8.26,1.94-11.07,5.09c-3.59,4-6,9.13-8.62,13.78-3.17,5.55-6.4,11.07-9.63,16.59A1.32,1.32,0,0,0,80.32,570Z"/><path class="cls-2" d="M27,352.47a48.44,48.44,0,0,0,2.57,17.22,47.41,47.41,0,0,0,3.44,7.62c1.45,2.59,3.15,5,4.62,7.61A36.77,36.77,0,0,1,42.05,401c.37,5.75.17,11.53.77,17.27a69.44,69.44,0,0,0,4,16.42c1.9,5.3,4.08,10.51,5.48,16a35.79,35.79,0,0,1,.8,15.84A41.88,41.88,0,0,1,47,481.18a66.66,66.66,0,0,1-12.68,14c-5,4.3-10.55,7.82-15.59,12-2.37,2,.68,5.78,3.25,4.22a123.26,123.26,0,0,0,14.41-10.73A80.46,80.46,0,0,0,49,487.9c7-9.1,11.24-20.33,9.69-31.89S51,434.37,48.47,423.14s-.06-23.34-4.26-34.3c-2.42-6.3-7.09-11.27-10.18-17.21a44.34,44.34,0,0,1-5-19.16,1,1,0,0,0-2,0Z"/><path class="cls-2" d="M9.49,176.32c16,7.49,32.13,14.93,47.55,23.63,7.18,4.05,14.45,8.17,20.62,13.67,5.63,5,10.55,10.74,15.79,16.14s11,10.69,17.72,14.13c7.73,3.92,16.43,5.59,24.78,7.65s16.86,4.42,25.4,6c7,1.31,14.51,2.08,21.44,0a23,23,0,0,0,9.09-5.17A33.08,33.08,0,0,0,198,244c1.67-3.05,3.13-6.23,4.93-9.21a25.76,25.76,0,0,1,7.19-7.87c3.16-2.23,6.77-4.13,9.31-7.12,2.18-2.56,3.86-6,3.53-9.42-.37-3.8-3-6.2-6.24-7.91S210.11,199,207,197c-12.51-8.21-22.59-19.57-31.41-31.53-9.72-13.17-18.14-27.27-26.89-41.09q-15.15-24-30.35-47.87T87.87,28.39L80.4,16.57c-1.41-2.23-5-.17-3.54,2.07,10,15.75,20,31.47,29.94,47.24s19.88,31.55,29.86,47.3c9.17,14.47,18.12,29.11,27.71,43.32,8.29,12.29,17.36,24.28,28.57,34.06a94.46,94.46,0,0,0,18,12.51c2.86,1.51,7.25,2.73,8.61,6,1.26,3-.45,6.67-2.51,8.9-2.64,2.87-6.28,4.59-9.4,6.85a28,28,0,0,0-7.2,7.72c-3.61,5.65-5.8,12.41-10.73,17.13-5.08,4.85-12.22,5.87-19,5.46-7.74-.48-15.27-2.71-22.77-4.55-8.62-2.1-17.36-3.87-25.88-6.34a50.64,50.64,0,0,1-11.45-4.64,57,57,0,0,1-8.71-6.34c-5.58-4.83-10.48-10.37-15.67-15.6a90.52,90.52,0,0,0-17.59-14.1c-14.92-9-30.71-16.45-46.55-23.67l-11.59-5.3c-1.16-.54-2.19,1.19-1,1.74Z"/><path class="cls-2" d="M66.68,39.11c4,6,8.36,11.75,12.61,17.57S87.77,68.39,92,74.26q12.48,17.43,24,35.53a398.77,398.77,0,0,1,21,37.15c5.76,11.67,11.35,23.46,19.85,33.45,4.48,5.26,9.94,9.37,15.19,13.81,5,4.2,9.85,9,12.17,15.26a16.78,16.78,0,0,1-2.36,16.68A25.08,25.08,0,0,1,167,234.78c-7.12,1.46-14.54.67-21.64-.45a97.49,97.49,0,0,1-19.72-4.78,46.25,46.25,0,0,1-16.26-10.69c-4.42-4.4-8.24-9.35-12.47-13.94a67.43,67.43,0,0,0-15.49-12.5c-6.19-3.64-12.77-6.58-19.25-9.65l-42-19.88L9.81,158c-1.49-.7-2.8,1.5-1.3,2.22C22.88,167.16,37.3,174,51.69,181c6.93,3.33,13.91,6.59,20.78,10,6.18,3.09,12.27,6.53,17.44,11.17,9.69,8.7,16.34,20.6,28,27.05,5.9,3.26,12.4,5.1,19,6.51,7.1,1.52,14.45,2.87,21.72,3,6.66.09,13.48-1.23,19.14-4.89,4.78-3.09,8.8-7.74,10.14-13.38,1.5-6.3-.54-12.75-4.07-18-3.92-5.85-9.59-10.12-15-14.5a71.33,71.33,0,0,1-14.16-14.77,130.93,130.93,0,0,1-9.72-17c-3-6.16-5.88-12.42-9-18.56q-5-9.85-10.55-19.41C110.67,92.74,93.13,69.06,75.11,46c-2.17-2.79-4.36-5.53-6.64-8.22-.83-1-2.5.31-1.79,1.38Z"/><path class="cls-2" d="M57.94,40.44c5.84,11.69,12.11,23.17,18.38,34.63S89,97.89,95.63,109.16q19.66,33.61,40.31,66.64,5.12,8.22,10.34,16.36,2.67,4.17,5.35,8.34c1.58,2.44,3.72,5.1,4.07,8.07.51,4.33-3.67,6.45-7.33,7-4.53.61-9.15-.86-13.24-2.72-9.47-4.31-17.08-11.64-24.45-18.81-3.89-3.78-7.76-7.56-11.9-11.07A160.24,160.24,0,0,0,85,172.49c-19.1-13-40.45-22.05-61.81-30.58q-4-1.59-8-3.14a1.63,1.63,0,0,0-2,1.13,1.66,1.66,0,0,0,1.13,2c21.83,8.94,43.88,17.69,63.91,30.33a170.25,170.25,0,0,1,27.17,21.43c7.61,7.31,15.14,15.1,24.43,20.3a37.5,37.5,0,0,0,14.22,4.92c4.14.4,8.92-.4,12.09-3.29a8.46,8.46,0,0,0,2.68-5.32c.34-3-1-5.92-2.6-8.44-3.42-5.6-7.06-11.07-10.55-16.62q-21.3-33.76-41.54-68.15C90.74,94.09,77.56,71,64.39,47.87q-2.39-4.2-4.81-8.39a1,1,0,0,0-1.64,1Z"/><path class="cls-2" d="M44.73,41.56a462.08,462.08,0,0,0,28,57c10.46,18.33,21.62,36.32,33.8,53.57q4.59,6.48,9.33,12.87c1.62,2.16,3.28,4.28,4.94,6.4a50.48,50.48,0,0,1,4.33,5.95c1,1.73,1.72,3.82.88,5.76-.54,1.23-1.83,2.62-3.29,2.17-1.89-.59-3.31-3.09-4.53-4.52-1.46-1.71-3-3.39-4.47-5a186.47,186.47,0,0,0-20.29-19A157.73,157.73,0,0,0,70.34,141,169.62,169.62,0,0,0,18,122.44c-2.29-.4-4.59-.72-6.89-1-2.48-.32-3.09,4-.6,4.4A171.09,171.09,0,0,1,64,143.25a192.33,192.33,0,0,1,24.17,14.84,149.35,149.35,0,0,1,21.09,18.72q2.44,2.59,4.76,5.33a65.77,65.77,0,0,0,4.45,5.26,6.8,6.8,0,0,0,6.47,2,7.94,7.94,0,0,0,4.74-4c2.49-4.75,0-9.69-2.9-13.59-3.23-4.34-6.52-8.63-9.74-13A615.31,615.31,0,0,1,81,105c-11-18.66-20.9-37.9-30.51-57.31C49.31,45.35,48.12,43,47,40.62c-.6-1.22-2.75-.35-2.23.94Z"/><path class="cls-2" d="M26.63,36.34C39.49,60.93,53,85.18,66.52,109.43l10.06,18.08c.73,1.32,1.6,2.63,2.21,4,.36.81.36,1.31-.45,1.78-2.07,1.22-4.37-1-5.71-2.38C68.5,126.77,65,122,60.41,118.31a37.22,37.22,0,0,0-14-6.72c-10.61-2.76-23.16-2-32.21-9a2.5,2.5,0,0,0-3.43,0,2.45,2.45,0,0,0,0,3.43c8.68,7.11,20.27,7.35,30.84,9.19,5.3.92,10.47,2.33,14.89,5.53,4.82,3.5,8.37,8.5,12.42,12.79,2.12,2.25,4.63,4.46,7.85,4.67a6.6,6.6,0,0,0,6.53-4c1.16-3.19-1.45-6.45-2.92-9.09L75,115.44q-10.62-19.05-21.32-38c-8-14.26-16.07-28.51-24.4-42.6a1.54,1.54,0,0,0-2.65,1.55Z"/><path class="cls-2" d="M24.43,59.61C30.65,69,36.74,78.44,43,87.81q2.36,3.56,4.68,7.12c.92,1.42,2.64,3.73,1.47,5.46-.49.72-1.1.58-1.82.22a30.34,30.34,0,0,1-3.49-2.23c-2.4-1.58-4.79-3.18-7.2-4.75-5.36-3.51-10.68-7.1-16.1-10.52-2.17-1.36-4,2-2,3.4,5.25,3.67,10.65,7.15,16,10.66,2.61,1.71,5.24,3.39,7.87,5.07,2.36,1.51,5.08,3.54,8,2.12a5.92,5.92,0,0,0,2.95-6c-.33-2.88-2.24-5.3-3.78-7.66C46.13,85.49,42.63,80.33,39,75.24c-4.12-5.79-8.38-11.44-12.73-17-.82-1-2.58.32-1.84,1.42Z"/><path class="cls-2" d="M547.94,27.58c.31,6,.42,12,.28,18A135.56,135.56,0,0,1,547.17,63c-.81,5.37-3.45,9.13-8.84,10.53-4.53,1.17-9.34,1.15-14,1.91a92.62,92.62,0,0,0-50.24,26C467.62,108,462.74,116,456,122.32A26.35,26.35,0,0,1,444.11,129c-4.69,1.08-9.52.41-14.08-.91-9.53-2.76-18.13-8.05-27.76-10.52-10.63-2.73-21.62-1.21-31.87,2.36-10.57,3.68-20.43,9.15-30.17,14.58q-15,8.4-29.62,17.6c-8.48,5.35-17.21,10.67-25.12,16.85-4.81,3.77-9.33,7.91-14,11.87A168.77,168.77,0,0,1,254,194.31c-4.33,2.81-10,6.5-15.41,6.11-3.71-.27-6.12-3.63-8.42-6.17a51.37,51.37,0,0,0-11.14-8.93c-4.25-2.64-8.72-4.95-12.94-7.67a63.75,63.75,0,0,1-11.92-10C186.79,159.76,181,150.5,175,141.49q-9.78-14.91-19.07-30.15-18.51-30.28-36.22-61c-2.92-5-5.83-10.07-8.82-15.06a1.82,1.82,0,0,0-3.14,1.83c11.7,21.38,24,42.5,36.47,63.41q9.38,15.67,19.25,31c6.2,9.63,12.41,19.33,19.22,28.55,6.18,8.35,13.06,16,21.88,21.59,4.43,2.83,9.1,5.24,13.51,8.1a57.84,57.84,0,0,1,11.08,9.81c2.52,2.72,5.48,4.9,9.27,5.16a18.57,18.57,0,0,0,7.64-1.36c6.48-2.42,12.29-6.51,17.75-10.67,5.79-4.41,11.31-9.15,16.81-13.91a171.05,171.05,0,0,1,16.19-12.42C316.43,153.13,336.78,140.52,358,130c10.17-5,21.19-9.38,32.7-9.51,10.69-.13,20.06,4.55,29.73,8.47,8.83,3.56,18.6,6.37,27.89,2.78,8.78-3.4,14.66-11,20.31-18.18A97.44,97.44,0,0,1,490,93a88.67,88.67,0,0,1,41.67-15.17c4.29-.45,8.91-.86,12.6-3.32,4-2.7,5.6-7.18,6.17-11.81A131.3,131.3,0,0,0,551,45.56q-.11-9-.88-18c-.12-1.35-2.21-1.38-2.13,0Z"/><path class="cls-2" d="M534.44,28.05c1.06,8.08,2.22,17.36-1.42,25C529.22,61,521.48,64,513.29,65.38c-4.24.74-8.53,1.11-12.76,1.9A65.62,65.62,0,0,0,487.82,71,71.49,71.49,0,0,0,465.16,85.5c-5.84,5.56-11.11,12.12-18.08,16.33a20.53,20.53,0,0,1-11,3.24c-4.18-.07-8.07-1.7-11.7-3.66-7.68-4.16-14.53-9.32-23.52-10.13-9.59-.88-19.61,1.86-28.8,4.35A250.22,250.22,0,0,0,277.52,145a247.34,247.34,0,0,0-19.8,18.5c-1.44,1.49-2.84,3-4.23,4.55-1.54,1.7-3.11,3.91-5.33,4.75-4.46,1.69-8.67-3-11.13-6.05-2.64-3.25-5.25-6.59-9.23-8.25s-8.37-1.43-12.59-1.91a14.28,14.28,0,0,1-10.79-6.62c-2.29-3.41-4-7.21-5.92-10.8-8.67-15.84-19.94-30.22-30.58-44.75S147,65.2,139.47,48.86a126.75,126.75,0,0,1-4.83-12.2c-.69-2-3.91-1.17-3.23.89C143.05,73,170,99.79,189.35,130.92q3.6,5.81,6.86,11.81c2,3.78,3.84,7.73,6.56,11.08a16.65,16.65,0,0,0,10.7,6.08c4.38.67,9.23,0,13.36,1.92s6.32,6.25,9.11,9.53,6.64,6,11,5.76c4.82-.28,7.75-4.44,10.74-7.69s6.26-6.67,9.53-9.87a241.45,241.45,0,0,1,94.61-57,222.59,222.59,0,0,1,27.23-7c5.29-1,10.89-1.37,16.15,0,4.32,1.11,8.2,3.37,12,5.62,7.09,4.18,14.45,8.35,23,6.84,7.88-1.4,14.2-7,19.7-12.49,6.57-6.49,12.66-13,20.77-17.67s17.08-7.13,26.39-8.3c8.17-1,17.29-1.66,23.85-7.22s8-14,7.81-22.08a99.5,99.5,0,0,0-1.34-12.54c-.25-1.62-3.12-1.26-2.9.4Z"/><path class="cls-2" d="M503.88,30.06c3.78,6.07,1.38,14.15-3.42,18.93C495,54.4,487.26,56.48,480,58.17c-7.6,1.78-15.64,3.34-22.11,8-5.28,3.78-9.1,9.17-14.25,13.1a15.92,15.92,0,0,1-8.59,3.52c-4.2.28-8.29-1.2-12.13-2.76a105.29,105.29,0,0,0-11.55-4.29A78.64,78.64,0,0,0,399.6,73.5c-16.3-1.94-32.86,1.81-48.18,7.17-30.74,10.75-59.6,27.39-84.88,47.85-5.82,4.72-11.58,10.42-18.81,12.9a18.54,18.54,0,0,1-10.91.45c-3.72-1-7.15-2.75-10.62-4.35-1.59-.73-3.2-1.44-4.83-2.05-1.89-.7-3.88-1.08-5.75-1.81-3.54-1.38-4.56-5-5.72-8.29a88.77,88.77,0,0,0-8.51-17.47C187.55,85.66,166,68.29,156,43.64a72.55,72.55,0,0,1-3-8.93c-.61-2.33-4.12-1.35-3.6,1,6.07,27.12,28.62,45.73,44.07,67.52a107,107,0,0,1,10.14,17.2c1.45,3.19,2.44,6.54,3.79,9.77a12.26,12.26,0,0,0,7.39,7.44c1.62.58,3.3.94,4.92,1.52,2.07.75,4,1.69,6,2.62a53.26,53.26,0,0,0,10.8,4.24c7.84,1.8,15.18-1.06,21.55-5.53,6.7-4.7,12.75-10.3,19.3-15.21S291,115.58,298,111.19a287.77,287.77,0,0,1,45.07-22.88c15.81-6.32,32.58-11.13,49.73-11a65.1,65.1,0,0,1,24.25,4.83c7.41,3,15.4,6.58,23.34,3.25,6.22-2.6,10.5-7.93,15.19-12.53,5.74-5.61,12.62-8.4,20.27-10.45s15.47-3.66,22-8.11c5.46-3.72,9.61-9.58,9.84-16.37a14,14,0,0,0-2.57-8.65c-.55-.76-1.79-.08-1.28.75Z"/><path class="cls-2" d="M455.55,42.48c.88,5.68-2.26,11-6.61,14.43A28.72,28.72,0,0,1,432.54,63c-7.52.43-15-1.08-22.34-2.22a110.1,110.1,0,0,0-22.36-1.28,130.74,130.74,0,0,0-42.18,9.64C338.4,72,331.15,75,323.89,77.88c-3.51,1.4-7,2.91-10.56,4.19-3,1.09-6.4,2.2-9.63,1.74-7.18-1-9.46-9.25-11.74-15-3.23-8.11-6.37-16.28-9.91-24.26-.93-2.09-4.53-.6-3.73,1.57,2.85,7.71,6.07,15.29,9.21,22.89C290,75,292.08,82.29,297.85,85.88c6.09,3.8,13.63,1.49,19.76-.91,7.75-3,15.45-6.18,23.17-9.28a207.66,207.66,0,0,1,21.74-7.8,127.28,127.28,0,0,1,22.56-4.24,103.37,103.37,0,0,1,22.72.49c7.9,1.06,15.78,2.85,23.79,2.57,7.26-.27,14.24-2.48,19.55-7.6,4.68-4.5,7.54-10.61,6.37-17.18-.23-1.29-2.16-.73-2,.55Z"/><path class="cls-2" d="M265.38,43.39A111.4,111.4,0,0,0,273,63c1.53,3.17,3.2,6.26,5,9.3a47.1,47.1,0,0,1,4.52,8.93,12.24,12.24,0,0,1,0,8.6,17.55,17.55,0,0,1-5.22,6.38c-5.09,4.28-11.14,7.56-16.9,10.84-3.14,1.78-6.29,3.57-9.52,5.19-2.94,1.48-6.2,2.88-9.56,2.58-2.88-.25-5.36-2-7.46-3.85-2.57-2.3-4.89-4.89-7.29-7.37q-8-8.23-15.94-16.49c-4.73-4.9-9.57-9.76-13.47-15.36C189,60.14,185.91,45.74,176.49,35c-1.74-2-4.64.93-2.9,2.9,8.7,9.86,11.82,23.13,18.87,34,3.84,6,8.75,11.11,13.64,16.2q8.28,8.63,16.54,17.24c2.5,2.61,4.94,5.31,7.56,7.81a21.4,21.4,0,0,0,7.87,5.17c7.21,2.41,14.56-2.2,20.66-5.53a156.27,156.27,0,0,0,18.21-11.27c4.92-3.62,9.49-8.51,9.73-15,.29-7.78-5.51-14.51-9.09-20.94a148.32,148.32,0,0,1-9.9-22.86,1.19,1.19,0,0,0-2.3.63Z"/><path class="cls-2" d="M247.31,36.88c4.82,11.54,9.6,23.11,14.48,34.62,1.09,2.55,2.26,5.25,2.27,8.07a11.43,11.43,0,0,1-2.67,6.82c-2.89,3.8-6.95,7.33-11.5,9-4.23,1.5-9.39,1.43-13-1.47s-4.68-7.65-6.89-11.41c-2.59-4.42-6.54-6.75-11.32-8.25-2.24-.7-4.55-1.25-6.72-2.15a17.66,17.66,0,0,1-5.72-4c-3.89-4-6.33-9.17-8.91-14q-5-9.4-10-18.79c-1.33-2.49-5.09-.29-3.78,2.21q4.62,8.78,9.25,17.53c2.59,4.89,5,9.94,8.55,14.25A24.11,24.11,0,0,0,207,74.45a27.84,27.84,0,0,0,7.17,3,42.71,42.71,0,0,1,7,2.34,11.68,11.68,0,0,1,4.94,4.73c2.52,4.26,3.78,9.34,7.8,12.57a17.62,17.62,0,0,0,14.83,3.11c5.34-1.19,10.06-4.58,13.75-8.51,4-4.29,6.36-9.65,5-15.54-.8-3.37-2.45-6.53-3.89-9.65l-4.74-10.33q-4.63-10.11-9.25-20.23c-.58-1.25-2.79-.34-2.25,1Z"/><path class="cls-2" d="M294.72,48.1c3,5.42,4.55,11.79,8.39,16.74,4.31,5.55,11.42,7,18.05,5.56,7.28-1.58,13.15-6.45,18.95-10.82a121.65,121.65,0,0,1,19.71-11.93c4-1.94,8-3.72,12.07-5.41s8.18-3.15,12.14-5c1.46-.68.43-3.07-1.09-2.59-3.54,1.12-7,2.58-10.43,4s-6.87,2.83-10.26,4.37a129,129,0,0,0-19.51,10.67c-5.94,4-11.29,9.19-17.91,12.12-5.83,2.58-13.2,3-18.14-1.59s-6.3-11.73-10.17-17.15a1,1,0,0,0-1.8,1.05Z"/><path class="cls-2" d="M211.52,47.64c-.08,5.32,3,10.08,6.63,13.76,3.89,4,8.76,6.73,12.09,11.28,1.66,2.27,3.25,4.69,5.7,6.2a8,8,0,0,0,7.68.7,7.87,7.87,0,0,0,3.9-5.52,14,14,0,0,0-1.29-8.13c-1.38-3.3-2.87-6.55-4.31-9.81-1.51-3.43-2.88-7-4.66-10.31-1.06-2-4.47-.62-3.68,1.56.95,2.62,2.22,5.15,3.36,7.69s2.38,5.22,3.56,7.83a50.46,50.46,0,0,1,3,7.25c.51,1.84.65,4.11-.78,5.6s-3.77.85-5.31-.21c-1.94-1.33-3.19-3.52-4.59-5.37-3-3.92-6.92-6.71-10.61-9.88-3.9-3.34-7.92-7.13-8-12.64a1.36,1.36,0,0,0-2.71,0Z"/></g><g class="cls-1"><path class="cls-4" d="M208.39,397.6a.09.09,0,0,0,0-.17.09.09,0,0,0,0,.17Z"/></g><g class="cls-1"><path class="cls-4" d="M51.13,440.94a.16.16,0,0,0,0-.32.16.16,0,0,0,0,.32Z"/></g><path class="cls-5" d="M326.29,272.36a9,9,0,0,0-3.89,3.23,4.51,4.51,0,0,0,5.1,6.52c2.17-.57,3.58-2.61,5.38-4s3.79-2,5.65-3,3.6-2.73,3.79-4.86C343.14,260.68,329.45,270.63,326.29,272.36Z"/><path class="cls-5" d="M535,173.56l2.29,2.31a3.61,3.61,0,0,0,1.52,1.08,1.24,1.24,0,0,0,1.54-.7,1.86,1.86,0,0,0-.47-1.44l-1.39-2c-.85-1.22-2.49-5-4.45-3.85S534,172.57,535,173.56Z"/><path class="cls-5" d="M717.91,78.65c1.27,2.52,3.14,4.94,3.15,7.76a7.54,7.54,0,0,0,.08,2.07,1.27,1.27,0,0,0,2.31.66,4.81,4.81,0,0,0,.83-3.77,15.67,15.67,0,0,0-3-7.77C719.59,75.36,716.11,75.08,717.91,78.65Z"/><path class="cls-5" d="M646.29,320.41a4.83,4.83,0,0,1-4.48-.9,14.51,14.51,0,0,1-3.07-3.63L636,311.77c-1.45-2.17-2.93-4.42-3.42-7-.27-1.39,0-3.22,1.41-3.59,1.11-.3,2.16.55,3,1.34a27.67,27.67,0,0,0,6,4.73c2,1.06,6.32.92,7.8,2.54C653.14,312.34,649.09,319.33,646.29,320.41Z"/><path class="cls-5" d="M293.56,467.64l0,.16a42.22,42.22,0,0,1-3.12,9.94c-1.89,3.92-5,7.46-9.06,9-.83.31-1.86.73-1.89,1.61,0,1,1.23,1.47,2.22,1.72a14.3,14.3,0,0,1,6.31,3.46c1.65,1.56,2.94,3.52,4.79,4.85a2.42,2.42,0,0,0,1.32.55c1,0,1.77-1.07,1.8-2.1a8.16,8.16,0,0,0-.8-2.94c-2.33-6.28-.08-13.23,2.22-19.51,1.52-4.13,3.18-8.43,6.53-11.28a7.41,7.41,0,0,0,2.22-2.35c.44-1,0-2.46-1.05-2.61a3.13,3.13,0,0,0-1.72.51,7,7,0,0,1-6.48-.36,8.5,8.5,0,0,0-2-1.13,1.62,1.62,0,0,0-2,.69,2.14,2.14,0,0,0,0,1.23C293.37,462.36,294.19,464.37,293.56,467.64Z"/></g></svg>